<?xml version="1.0" encoding="utf-8"?>
<!-- Generator: Adobe Illustrator 27.5.0, SVG Export Plug-In . SVG Version: 6.00 Build 0)  -->
<svg version="1.1" xmlns="http://www.w3.org/2000/svg" xmlns:xlink="http://www.w3.org/1999/xlink" x="0px" y="0px"
	 viewBox="0 0 500 500" style="enable-background:new 0 0 500 500;" xml:space="preserve">
<g id="BACKGROUND">
	<rect style="fill:#FFFFFF;" width="500" height="500"/>
</g>
<g id="OBJECTS">
	<g>
		<g>
			<path style="fill:#2CBF7B;" d="M443.201,289.995c20.57-20.145,13.849-41.478,13.849-41.478
				c-16.372,11.396-25.364,28.883-25.364,28.883s-4.75,6.217-8.839,12.758L443.201,289.995z"/>
			<path style="fill:#033A3F;" d="M457.049,248.517c-0.382,0.999-0.786,1.991-1.219,2.97c-0.42,0.985-0.874,1.954-1.316,2.93
				c-0.466,0.964-0.927,1.93-1.409,2.886l-0.731,1.431c-0.243,0.477-0.484,0.955-0.742,1.425c-0.51,0.941-1.005,1.892-1.536,2.822
				l-1.599,2.787l-1.674,2.743l-0.419,0.685l-0.437,0.674l-0.875,1.348l-0.879,1.345c-0.296,0.446-0.609,0.881-0.913,1.323
				c-0.614,0.878-1.217,1.763-1.84,2.635l-1.925,2.574l-0.481,0.643c-0.159,0.215-0.32,0.429-0.491,0.636l-1.012,1.249l-1.012,1.248
				l-0.506,0.624c-0.167,0.21-0.337,0.416-0.516,0.615l-2.113,2.42c-0.358,0.398-0.702,0.808-1.071,1.196l-1.111,1.16
				c-0.739,0.774-1.482,1.544-2.228,2.311c0.708-0.803,1.418-1.603,2.133-2.398l1.069-1.195c0.355-0.399,0.685-0.821,1.028-1.23
				l2.056-2.459c0.174-0.203,0.34-0.412,0.502-0.624l0.491-0.633l0.982-1.266c1.332-1.671,2.56-3.42,3.828-5.138l1.823-2.635
				c0.301-0.441,0.611-0.876,0.905-1.322l0.872-1.344l0.876-1.341l0.438-0.67l0.42-0.682l1.683-2.727l1.624-2.762
				c0.276-0.457,0.525-0.93,0.79-1.394l0.788-1.395c0.267-0.463,0.517-0.935,0.77-1.406l0.759-1.412
				c0.502-0.943,0.979-1.9,1.469-2.85C455.263,252.404,456.188,250.475,457.049,248.517z"/>
			<path style="fill:#033A3F;" d="M442.47,265.055c0.237,0.605,0.426,1.22,0.599,1.839c0.176,0.618,0.324,1.242,0.466,1.868
				c0.134,0.627,0.261,1.256,0.361,1.891c0.103,0.634,0.189,1.272,0.227,1.92c-0.237-0.605-0.427-1.22-0.6-1.838
				c-0.176-0.618-0.324-1.242-0.466-1.868c-0.133-0.628-0.261-1.256-0.36-1.891C442.595,266.341,442.509,265.704,442.47,265.055z"/>
			<path style="fill:#033A3F;" d="M438.751,279.893c0.976-0.336,1.964-0.624,2.956-0.897c0.991-0.275,1.988-0.523,2.987-0.765
				c1.001-0.233,2.003-0.46,3.012-0.66c1.008-0.202,2.02-0.388,3.043-0.526c-0.976,0.336-1.964,0.625-2.955,0.897
				c-0.991,0.275-1.988,0.522-2.987,0.764c-1.001,0.233-2.003,0.46-3.012,0.659C440.786,279.569,439.774,279.754,438.751,279.893z"
				/>
			<path style="fill:#033A3F;" d="M448.772,265.295c0.526-0.238,1.064-0.43,1.606-0.605c0.542-0.175,1.089-0.333,1.64-0.473
				c0.551-0.141,1.107-0.263,1.666-0.369c0.56-0.105,1.124-0.194,1.7-0.236c-0.526,0.239-1.064,0.43-1.606,0.605
				c-0.542,0.174-1.088,0.334-1.64,0.472c-0.551,0.141-1.107,0.262-1.666,0.368C449.912,265.164,449.348,265.253,448.772,265.295z"
				/>
		</g>
		<g>
			<path style="fill:#027369;" d="M438.871,297.896c-0.342-1.367-0.762-2.783-1.283-4.256c-6.065-17.13-8.288-18.985-1.084-34.843
				c7.204-15.859,2.391-23.646-5.83-32.771c-8.221-9.125-1.752-33.139-13.166-36.632c-11.414-3.494-1.422,16.16-9.511,26.754
				c-8.089,10.594-11.281,16.226-10.179,28.459c1.102,12.233,11.48,13.353,5.095,24.616c-6.385,11.263-12.134,17.834-13.933,29.339
				c-0.573,3.662-0.298,17.748,3.665,19.514L438.871,297.896z"/>
			<path style="fill:#033A3F;" d="M437.588,293.64c-1.134-2.825-2.282-5.639-3.344-8.494c-0.535-1.426-1.039-2.866-1.473-4.335
				c-0.432-1.468-0.788-2.97-0.977-4.505c-0.182-1.535-0.167-3.098,0.041-4.628c0.214-1.53,0.587-3.026,1.059-4.483
				c0.961-2.91,2.237-5.683,3.61-8.399l-0.418,1.062l-0.427,1.057c-0.27,0.711-0.554,1.415-0.811,2.13
				c-0.26,0.713-0.533,1.421-0.765,2.142c-0.116,0.36-0.252,0.714-0.359,1.077l-0.331,1.084c-0.406,1.453-0.758,2.92-0.93,4.408
				c-0.183,1.485-0.192,2.987-0.005,4.472c0.169,1.487,0.514,2.955,0.92,4.408c0.393,1.458,0.881,2.894,1.356,4.336l1.46,4.32
				C436.664,290.74,437.151,292.181,437.588,293.64z"/>
			<path style="fill:#033A3F;" d="M416.349,191.6c1.091,10.432,1.25,20.944,1.043,31.43c-0.103,5.245-0.376,10.486-0.736,15.719
				c-0.356,5.234-0.863,10.458-1.455,15.671c-0.602,5.212-1.362,10.405-2.204,15.583l-0.654,3.88l-0.714,3.869
				c-0.454,2.584-1.027,5.145-1.551,7.715l-0.866,3.838l-0.435,1.918c-0.144,0.64-0.31,1.274-0.464,1.912l-0.94,3.82
				c-0.151,0.638-0.329,1.269-0.495,1.903l-0.508,1.9c-1.353,5.067-2.879,10.086-4.491,15.073l1.094-3.776
				c0.367-1.258,0.746-2.512,1.078-3.78l1.029-3.793l0.257-0.948l0.239-0.953l0.477-1.906c1.318-5.071,2.441-10.189,3.52-15.314
				l0.754-3.855l0.38-1.927l0.351-1.932l0.698-3.865l0.638-3.876c0.821-5.172,1.558-10.358,2.142-15.563
				c0.611-5.201,1.138-10.413,1.513-15.637c0.389-5.223,0.647-10.455,0.831-15.689c0.175-5.235,0.225-10.475,0.152-15.713
				C416.96,202.065,416.779,196.825,416.349,191.6z"/>
			<path style="fill:#033A3F;" d="M407.321,222.882c0.887,0.95,1.72,1.939,2.535,2.942c0.413,0.498,0.806,1.01,1.208,1.516
				l1.178,1.538l1.15,1.56c0.373,0.528,0.756,1.048,1.119,1.583c0.737,1.062,1.454,2.139,2.118,3.256
				c-0.887-0.949-1.721-1.938-2.536-2.942c-0.413-0.498-0.805-1.011-1.208-1.516l-1.178-1.539l-1.149-1.56
				c-0.373-0.527-0.756-1.048-1.119-1.583C408.703,225.074,407.985,223.998,407.321,222.882z"/>
			<path style="fill:#033A3F;" d="M414,261.003c1.661-1.298,3.36-2.541,5.071-3.765c0.852-0.617,1.718-1.215,2.577-1.821l2.598-1.79
				l2.619-1.76c0.88-0.576,1.753-1.163,2.64-1.729c1.767-1.143,3.547-2.266,5.365-3.334c-1.661,1.299-3.359,2.542-5.071,3.766
				c-0.852,0.617-1.718,1.214-2.577,1.821l-2.599,1.79l-2.619,1.76c-0.88,0.577-1.753,1.163-2.64,1.729
				C417.598,258.811,415.818,259.934,414,261.003z"/>
			<path style="fill:#033A3F;" d="M406.607,298.013c1.661-1.298,3.36-2.541,5.071-3.765c0.852-0.617,1.718-1.215,2.577-1.821
				l2.598-1.79l2.619-1.76c0.88-0.576,1.753-1.163,2.64-1.729c1.767-1.143,3.547-2.266,5.365-3.334
				c-1.661,1.299-3.359,2.542-5.071,3.766c-0.852,0.617-1.718,1.214-2.577,1.821l-2.599,1.79l-2.619,1.76
				c-0.88,0.577-1.753,1.163-2.64,1.729C410.204,295.821,408.424,296.944,406.607,298.013z"/>
			<path style="fill:#033A3F;" d="M404.308,273.03c0.637,0.666,1.221,1.37,1.785,2.087c0.564,0.718,1.109,1.448,1.633,2.194
				c0.526,0.745,1.028,1.506,1.512,2.279c0.484,0.774,0.948,1.562,1.358,2.388c-0.638-0.666-1.222-1.369-1.786-2.087
				c-0.564-0.718-1.11-1.448-1.632-2.195c-0.524-0.745-1.027-1.506-1.511-2.28C405.184,274.642,404.719,273.855,404.308,273.03z"/>
		</g>
	</g>
	<path style="fill:#E3FBFF;" d="M89.995,389.396c0,0,13.025-27.44,2.939-63.345c-11.773-41.906-31.724-61.134-20.429-103.087
		c9.376-34.825,42.763-82.626,123.439-83.906c50.828-0.807,61.272,3.704,101.915,29.454c15.002,9.504,67.78,9.003,83.906,29.044
		c26.353,32.751,27.113,50.255,26.624,75.032c-0.815,41.293-22.724,68.176-23.708,76.27c-1.997,16.428-13.116,40.904-13.116,40.904
		L89.995,389.396z"/>
	<g>
		<rect x="182.505" y="146.899" style="fill:#B2DCF7;" width="184.375" height="126.88"/>
		<rect x="187.967" y="150.996" style="fill:#72A2BA;" width="173.45" height="118.686"/>
		<rect x="239.639" y="149.07" style="fill:#B2DCF7;" width="5.002" height="122.706"/>
		<rect x="304.738" y="149.07" style="fill:#B2DCF7;" width="5.004" height="122.706"/>
		<rect x="180.253" y="137.454" style="fill:#B2DCF7;" width="191.205" height="10.157"/>
		<rect x="190.582" y="147.611" style="fill:#B2DCF7;" width="1.707" height="52.668"/>
		<rect x="352.421" y="147.611" style="fill:#B2DCF7;" width="1.708" height="99.167"/>
		<rect x="275.002" y="147.611" style="fill:#B2DCF7;" width="1.707" height="47.427"/>
		<rect x="180.253" y="150.945" style="fill:#B2DCF7;" width="191.205" height="1.357"/>
		<rect x="180.253" y="156.414" style="fill:#B2DCF7;" width="191.205" height="1.357"/>
		<rect x="180.253" y="161.882" style="fill:#B2DCF7;" width="191.205" height="1.357"/>
		<rect x="180.253" y="167.351" style="fill:#B2DCF7;" width="191.205" height="1.357"/>
		<rect x="180.253" y="172.82" style="fill:#B2DCF7;" width="191.205" height="1.357"/>
		<rect x="180.253" y="178.289" style="fill:#B2DCF7;" width="191.205" height="1.357"/>
		<rect x="180.253" y="183.758" style="fill:#B2DCF7;" width="191.205" height="1.356"/>
		<rect x="180.253" y="189.228" style="fill:#B2DCF7;" width="191.205" height="1.355"/>
		<rect x="180.253" y="194.696" style="fill:#B2DCF7;" width="191.205" height="1.356"/>
	</g>
	<g>
		<path style="fill:#72A2BA;" d="M131.152,302.749l-41.328-15.691l2.562-6.747c1.536-4.046,4.595-6.638,6.831-5.789l33.23,12.616
			c2.236,0.849,2.804,4.818,1.268,8.864L131.152,302.749z"/>
		<path style="fill:#72A2BA;" d="M370.131,332.955H162.599v-8.118c0-5.809,4.774-10.517,10.664-10.517h186.204
			c5.89,0,10.664,4.709,10.664,10.517V332.955z"/>
		<path style="fill:#72A2BA;" d="M164.489,330.799L68.53,294.365l3.171-8.352c1.902-5.009,7.653-7.471,12.845-5.5l77.155,29.294
			c5.193,1.971,7.86,7.63,5.959,12.639L164.489,330.799z"/>
		<rect x="121.631" y="327.792" style="fill:#B2DCF7;" width="11.091" height="29.393"/>
		<rect x="119.029" y="337.536" style="fill:#72A2BA;" width="16.294" height="18.53"/>
		<rect x="322.593" y="340.925" style="fill:#B2DCF7;" width="11.091" height="14.696"/>
		<rect x="319.992" y="343.162" style="fill:#72A2BA;" width="16.294" height="18.53"/>
		<g>
			
				<rect x="111.103" y="267.758" transform="matrix(0.3591 -0.9333 0.9333 0.3591 -225.7549 311.3895)" style="fill:#89B3CD;" width="5.48" height="104.614"/>
			<path style="fill:#89B3CD;" d="M159.58,335.283l-90.14-34.68c-2.034-0.783-3.201-2.669-2.607-4.213l0.022-0.056
				c0.594-1.544,2.725-2.162,4.759-1.379l90.14,34.68c2.034,0.783,3.201,2.669,2.607,4.213l-0.022,0.056
				C163.744,335.448,161.614,336.066,159.58,335.283z"/>
			<path style="fill:#89B3CD;" d="M173.323,305.493l-7.693-12.007c-0.724-1.13-1.862-2.037-3.203-2.553l-66.464-25.571
				c-1.515-0.583-3.165-0.619-4.565-0.099l-12.904,4.793c-1.735,0.644-2.875,2.062-3.027,3.765l-1.6,17.906
				c-0.208,2.322,1.452,4.654,4.012,5.639l77.898,29.97c2.606,1.003,5.448,0.343,6.823-1.585l10.764-15.09
				C174.426,309.169,174.41,307.19,173.323,305.493z M103.189,280.352l-25.332,13.303l-0.003-0.001l2.034-17.62
				c0.21-1.818,1.548-3.276,3.493-3.807l10.163-2.774c1.295-0.353,2.747-0.264,4.088,0.252l3.951,1.52
				C106.124,272.972,107.064,278.317,103.189,280.352z M168.294,310.047l-10.3,14.44l-0.003-0.001l-9.883-26.852
				c-1.512-4.108,2.768-7.444,7.31-5.697l3.951,1.52c1.341,0.516,2.479,1.423,3.203,2.553l5.683,8.87
				C169.342,306.578,169.357,308.556,168.294,310.047z"/>
			<path style="fill:#89B3CD;" d="M65.686,299.159l-4.093-1.575c-3.214-1.236-4.736-4.913-3.337-8.059l14.818-33.316
				c0.914-2.055,3.278-3.034,5.377-2.226l0.078,0.03c2.178,0.838,3.264,3.282,2.426,5.46L65.686,299.159z"/>
			<path style="fill:#B2DCF7;" d="M67.625,308.012l-9.041-3.478c-1.703-0.655-2.552-2.567-1.897-4.269l0.344-0.895
				c0.655-1.703,2.567-2.552,4.269-1.897l9.041,3.478c1.703,0.655,2.552,2.567,1.897,4.269l-0.344,0.895
				C71.24,307.817,69.328,308.667,67.625,308.012z"/>
			<path style="fill:#B2DCF7;" d="M130.14,332.063l-9.041-3.478c-1.703-0.655-2.552-2.567-1.897-4.269l0.344-0.895
				c0.655-1.703,2.567-2.552,4.269-1.897l9.041,3.478c1.703,0.655,2.552,2.567,1.897,4.269l-0.344,0.895
				C133.755,331.869,131.843,332.718,130.14,332.063z"/>
		</g>
		<rect x="170.932" y="335.042" style="fill:#B2DCF7;" width="199.199" height="5.48"/>
		<g>
			<g>
				<rect x="112.05" y="370.698" style="fill:#72A2BA;" width="10.46" height="12.459"/>
			</g>
			<g>
				<g>
					<path style="fill:#89B3CD;" d="M122.51,385.138h-2.392c0-3.197-2.815-5.797-6.274-5.797c-3.46,0-6.274,2.601-6.274,5.797
						h-2.392c0-4.516,3.888-8.189,8.667-8.189C118.622,376.949,122.51,380.623,122.51,385.138z"/>
				</g>
			</g>
			<g>
				<g>
					<g>
						<ellipse style="fill:#72A2BA;" cx="113.843" cy="385.138" rx="7.471" ry="6.993"/>
					</g>
				</g>
				<g>
					<g>
						<ellipse style="fill:#89B3CD;" cx="113.843" cy="385.138" rx="6.051" ry="5.665"/>
					</g>
				</g>
			</g>
		</g>
		<g>
			<g>
				<rect x="331.517" y="370.698" style="fill:#72A2BA;" width="10.46" height="12.459"/>
			</g>
			<g>
				<g>
					<path style="fill:#89B3CD;" d="M331.517,385.138h2.392c0-3.197,2.815-5.797,6.274-5.797c3.46,0,6.274,2.601,6.274,5.797h2.392
						c0-4.516-3.888-8.189-8.667-8.189C335.405,376.949,331.517,380.623,331.517,385.138z"/>
				</g>
			</g>
			<g>
				<g>
					<g>
						<ellipse style="fill:#72A2BA;" cx="340.184" cy="385.138" rx="7.471" ry="6.993"/>
					</g>
				</g>
				<g>
					<g>
						<ellipse style="fill:#89B3CD;" cx="340.184" cy="385.138" rx="6.051" ry="5.665"/>
					</g>
				</g>
			</g>
		</g>
		<path style="fill:#89B3CD;" d="M265.026,335.562h-96.581c-2.179,0-3.946-1.341-3.946-2.996v-0.061
			c0-1.655,1.767-2.996,3.946-2.996h96.581c2.179,0,3.946,1.341,3.946,2.996v0.061C268.972,334.22,267.206,335.562,265.026,335.562z
			"/>
		<path style="fill:#89B3CD;" d="M368.282,335.562h-96.581c-2.179,0-3.946-1.341-3.946-2.996v-0.061
			c0-1.655,1.767-2.996,3.946-2.996h96.581c2.179,0,3.946,1.341,3.946,2.996v0.061C372.228,334.22,370.461,335.562,368.282,335.562z
			"/>
		<path style="fill:#89B3CD;" d="M372.103,335.562h4.385c3.443,0,6.184-2.885,6.008-6.324l-1.867-36.415
			c-0.115-2.246-1.97-4.008-4.219-4.008h-0.083c-2.333,0-4.224,1.891-4.224,4.224V335.562z"/>
		<path style="fill:#B2DCF7;" d="M367.753,343.127h9.687c1.824,0,3.303-1.479,3.303-3.304v-0.958c0-1.824-1.479-3.303-3.303-3.303
			h-9.687c-1.824,0-3.304,1.479-3.304,3.303v0.958C364.45,341.648,365.929,343.127,367.753,343.127z"/>
		<path style="fill:#B2DCF7;" d="M323.295,341.564h9.687c1.824,0,3.304-1.479,3.304-3.304v-0.958c0-1.824-1.479-3.303-3.304-3.303
			h-9.687c-1.824,0-3.304,1.479-3.304,3.303v0.958C319.992,340.085,321.471,341.564,323.295,341.564z"/>
		<path style="fill:#B2DCF7;" d="M169.528,343.127h-9.687c-1.824,0-3.303-1.479-3.303-3.304v-0.958c0-1.824,1.479-3.303,3.303-3.303
			h9.687c1.824,0,3.304,1.479,3.304,3.303v0.958C172.831,341.648,171.352,343.127,169.528,343.127z"/>
		<path style="fill:#B2DCF7;" d="M273.816,343.127h-9.687c-1.824,0-3.303-1.479-3.303-3.304v-0.958c0-1.824,1.479-3.303,3.303-3.303
			h9.687c1.824,0,3.303,1.479,3.303,3.303v0.958C277.119,341.648,275.64,343.127,273.816,343.127z"/>
		<path style="fill:#B2DCF7;" d="M299.725,351.101v0.096c0,2.62-1.957,4.744-4.371,4.744h-135.83c-2.414,0-4.371-2.124-4.371-4.744
			v-0.096c0-2.62-1.957-4.744-4.371-4.744h-39.535c-2.414,0-4.371,2.124-4.371,4.744v17.82c0,2.62,1.957,4.744,4.371,4.744h233.233
			c2.414,0,4.371-2.124,4.371-4.744v-17.82c0-2.62-1.957-4.744-4.371-4.744h-40.383
			C301.682,346.357,299.725,348.481,299.725,351.101z"/>
		<path style="fill:#B2DCF7;" d="M362.242,314.944H185.585c-2.306,0-4.176-1.976-4.176-4.413v-0.089
			c0-2.437,1.869-4.413,4.176-4.413h176.656c2.306,0,4.176,1.976,4.176,4.413v0.089
			C366.417,312.968,364.548,314.944,362.242,314.944z"/>
	</g>
	<g>
		<g>
			
				<rect x="412.938" y="160.95" transform="matrix(-1.836970e-16 1 -1 -1.836970e-16 583.3204 -247.2715)" style="fill:#E3FBFF;" width="4.716" height="14.148"/>
			<rect x="412.938" y="160.95" style="fill:#E3FBFF;" width="4.716" height="14.148"/>
		</g>
		<g>
			
				<rect x="435.463" y="175.591" transform="matrix(-1.836970e-16 1 -1 -1.836970e-16 620.4863 -255.1552)" style="fill:#E3FBFF;" width="4.716" height="14.148"/>
			<rect x="435.463" y="175.591" style="fill:#E3FBFF;" width="4.716" height="14.148"/>
		</g>
		<g>
			
				<rect x="179.856" y="105.206" transform="matrix(-1.836970e-16 1 -1 -1.836970e-16 294.4945 -69.9342)" style="fill:#E3FBFF;" width="4.716" height="14.148"/>
			<rect x="179.856" y="105.206" style="fill:#E3FBFF;" width="4.716" height="14.148"/>
		</g>
		<g>
			
				<rect x="41.068" y="236.62" transform="matrix(-1.836970e-16 1 -1 -1.836970e-16 287.1198 200.2676)" style="fill:#E3FBFF;" width="4.716" height="14.148"/>
			<rect x="41.068" y="236.619" style="fill:#E3FBFF;" width="4.716" height="14.148"/>
		</g>
		<g>
			
				<rect x="148.419" y="104.284" transform="matrix(-1.836970e-16 1 -1 -1.836970e-16 262.1354 -39.4194)" style="fill:#E3FBFF;" width="4.716" height="14.148"/>
			<rect x="148.419" y="104.284" style="fill:#E3FBFF;" width="4.716" height="14.148"/>
		</g>
	</g>
	<g>
		<g>
			<path style="fill:#CC293D;" d="M455.863,291.878c-27.89-2.391-48.913-19.042-63.073-49.949v-0.551
				c-0.042,0.093-0.085,0.183-0.127,0.276c-0.042-0.092-0.085-0.183-0.127-0.276v0.551c-14.159,30.907-35.183,47.559-63.073,49.949
				c0,0,5.595,98.367,63.073,98.656v0.002c0.042,0,0.084-0.001,0.127-0.001c0.042,0,0.084,0.001,0.127,0.001v-0.002
				C450.268,390.245,455.863,291.878,455.863,291.878z"/>
		</g>
		<g>
			<g>
				<path style="fill:#FD5B68;" d="M443.91,300.825c-22.615-1.938-39.662-15.44-51.143-40.502v-0.447
					c-0.034,0.075-0.069,0.149-0.103,0.224c-0.034-0.075-0.069-0.148-0.103-0.224v0.447c-11.481,25.061-28.528,38.563-51.143,40.502
					c0,0,4.537,79.762,51.143,79.996v0.001c0.034,0,0.068-0.001,0.103-0.001c0.034,0,0.068,0.001,0.103,0.001v-0.001
					C439.373,380.587,443.91,300.825,443.91,300.825z"/>
			</g>
		</g>
		<g>
			<polygon style="fill:#FFFFFF;" points="420.601,312.163 400.851,312.163 400.851,292.412 384.478,292.412 384.478,312.163 
				364.727,312.163 364.727,328.536 384.478,328.536 384.478,348.287 400.851,348.287 400.851,328.536 420.601,328.536 			"/>
		</g>
	</g>
	<g>
		<rect x="86.81" y="220.537" style="fill:#78ABCE;" width="18.893" height="6.886"/>
		<rect x="139.769" y="220.537" style="fill:#78ABCE;" width="18.893" height="6.886"/>
		<g>
			<rect x="89.53" y="197.155" style="fill:#78ABCE;" width="6.154" height="19.174"/>
			<rect x="89.53" y="197.155" style="fill:#629ABF;" width="6.154" height="2.439"/>
			<rect x="89.53" y="214.464" style="fill:#629ABF;" width="6.154" height="1.864"/>
		</g>
		<rect x="95.684" y="191.56" style="fill:#629ABF;" width="6.871" height="24.769"/>
		<rect x="97.545" y="194.285" style="fill:#8BB8DC;" width="3.149" height="17.43"/>
		<rect x="102.555" y="195.385" style="fill:#78ABCE;" width="5.249" height="20.944"/>
		<g>
			<rect x="124.03" y="183.813" style="fill:#8BB8DC;" width="9.446" height="32.516"/>
			<polygon style="fill:#FFFFFF;" points="125.365,187.543 125.365,203.132 132.141,203.132 132.141,187.543 128.753,189.647 			"/>
			<path style="fill:#C3DFED;" d="M131.256,207.77c0,1.386-1.12,2.51-2.504,2.51c-1.382,0-2.505-1.124-2.505-2.51
				c0-1.387,1.123-2.509,2.505-2.509C130.136,205.261,131.256,206.383,131.256,207.77z"/>
			<path style="fill:#629ABF;" d="M130.773,207.77c0,1.118-0.905,2.026-2.021,2.026c-1.116,0-2.02-0.907-2.02-2.026
				c0-1.118,0.904-2.026,2.02-2.026C129.869,205.744,130.773,206.652,130.773,207.77z"/>
		</g>
		<g>
			<rect x="133.476" y="183.813" style="fill:#78ABCE;" width="9.446" height="32.516"/>
			<polygon style="fill:#FFFFFF;" points="134.812,187.543 134.812,203.132 141.587,203.132 141.587,187.543 138.2,189.647 			"/>
			<path style="fill:#C3DFED;" d="M140.703,207.77c0,1.386-1.12,2.51-2.504,2.51c-1.383,0-2.505-1.124-2.505-2.51
				c0-1.387,1.122-2.509,2.505-2.509C139.583,205.261,140.703,206.383,140.703,207.77z"/>
			<path style="fill:#629ABF;" d="M140.22,207.77c0,1.118-0.905,2.026-2.021,2.026c-1.116,0-2.02-0.907-2.02-2.026
				c0-1.118,0.904-2.026,2.02-2.026C139.315,205.744,140.22,206.652,140.22,207.77z"/>
		</g>
		<g>
			<rect x="142.923" y="183.813" style="fill:#8BB8DC;" width="9.447" height="32.516"/>
			<polygon style="fill:#FFFFFF;" points="144.259,187.543 144.259,203.132 151.034,203.132 151.034,187.543 147.646,189.647 			"/>
			<path style="fill:#C3DFED;" d="M150.15,207.77c0,1.386-1.12,2.51-2.504,2.51c-1.383,0-2.505-1.124-2.505-2.51
				c0-1.387,1.122-2.509,2.505-2.509C149.03,205.261,150.15,206.383,150.15,207.77z"/>
			<path style="fill:#629ABF;" d="M149.667,207.77c0,1.118-0.905,2.026-2.021,2.026c-1.116,0-2.02-0.907-2.02-2.026
				c0-1.118,0.904-2.026,2.02-2.026C148.762,205.744,149.667,206.652,149.667,207.77z"/>
		</g>
		<g>
			<rect x="152.37" y="183.813" style="fill:#78ABCE;" width="9.446" height="32.516"/>
			<polygon style="fill:#FFFFFF;" points="153.705,187.543 153.705,203.132 160.48,203.132 160.48,187.543 157.093,189.647 			"/>
			<path style="fill:#C3DFED;" d="M159.597,207.77c0,1.386-1.121,2.51-2.504,2.51c-1.383,0-2.505-1.124-2.505-2.51
				c0-1.387,1.123-2.509,2.505-2.509C158.476,205.261,159.597,206.383,159.597,207.77z"/>
			<path style="fill:#629ABF;" d="M159.113,207.77c0,1.118-0.904,2.026-2.02,2.026c-1.116,0-2.021-0.907-2.021-2.026
				c0-1.118,0.905-2.026,2.021-2.026C158.209,205.744,159.113,206.652,159.113,207.77z"/>
		</g>
		
			<rect x="110.307" y="197.051" transform="matrix(0.9628 -0.2701 0.2701 0.9628 -51.644 37.9292)" style="fill:#629ABF;" width="3.408" height="19.171"/>
		<rect x="77.842" y="216.329" style="fill:#FFFFFF;" width="91.125" height="4.208"/>
	</g>
	<g>
		<path style="fill-rule:evenodd;clip-rule:evenodd;fill:#142D4D;" d="M257.459,171.133c0.374-5.337,0.72-10.693-3.117-15.936
			c-3.105-4.231-7.693-6.259-12.636-6.12c-13.999,0.399-13.395,12.862-25.667,20.19c-5.243,3.121-11.069,3.305-15.615,7.02
			c-8.22,6.687-10.777,22.448-2.731,35.585c19.702,32.185,50.875,4.61,54.312-2.808C254.56,203.551,257.219,174.569,257.459,171.133
			z"/>
		<g>
			<path style="fill:#72A2BA;" d="M261.458,384.887c0.02,2.754,0.641,8.71,0.641,8.71h35.359c1.538-3.843-5.381-5.893-5.381-5.893
				l-5.369-2.182c-0.856,1.465-2.469,3.177-5.392,3.463C276.653,389.44,266.537,384.846,261.458,384.887z"/>
		</g>
		<g>
			<path style="fill:#F4B3B3;" d="M248.262,322.622l13.196,62.135v0.129c5.079-0.041,15.195,4.553,19.859,4.099
				c2.923-0.286,4.536-1.998,5.392-3.463l-10.389-4.224l-4.997-59.574L248.262,322.622z"/>
		</g>
		<g>
			<path style="fill:#F4B3B3;" d="M235.466,322.32v68.061h-18.192c0,0,0-4.131,1.665-8.872l-4.1-58.42L235.466,322.32z"/>
		</g>
		<g>
			<path style="fill:#72A2BA;" d="M216.761,390.837c0,3.383,3.18,4.123,10.114,4.123c6.934,0,9.744-0.74,9.744-4.123
				s-2.81-6.126-9.744-6.126C219.941,384.711,216.761,387.454,216.761,390.837z"/>
		</g>
		<path style="fill:#FD5B68;" d="M221.284,234.351c-1.735,8.277-7.929,30.717-10.478,51.386c-2.87,23.275-0.456,42.444-0.433,42.445
			c12.726,3.76,65.037,1.936,71.464-2.274c0.295-0.014-5.203-62.066-17.383-90.682c-13.848-0.258-27.681-0.356-41.64-0.581
			C222.292,234.571,221.784,234.469,221.284,234.351z"/>
		<path style="fill:#277FFF;" d="M265.595,187.854c-3.681-2.49-13.242-4.445-14.942-4.764c-1.732-0.325-13.893-0.578-15.917,0
			c-3.79,1.083-8.446,2.382-12.885,4.114c-0.546,0.213-0.974,15.592-0.108,44.177c0.015,0.493-0.153,1.514-0.458,2.969
			c0.5,0.117,1.008,0.22,1.53,0.295c13.959,0.225,27.791,0.323,41.64,0.581c-0.579-1.36-1.173-2.646-1.782-3.845
			C262.671,231.38,265.964,188.104,265.595,187.854z"/>
		<g>
			<g>
				<path style="fill:#F4B3B3;" d="M249.202,184.903c0,0.753-0.075,1.484-0.215,2.177c-0.706,3.489-3.066,6.05-5.87,6.05h-0.191
					c-3.361,0-6.085-3.683-6.085-8.227v-13.201l11.444-1.946L249.202,184.903z"/>
			</g>
		</g>
		<g>
			<g>
				<g>
					<path style="fill:#277FFF;" d="M222.785,236.713V189.06l3.954-4.452l7.718-4.983c0,0,7.599,5.33,9.483,6.552l1.395,2.309
						c0.319-0.37,0.619-0.816,0.871-1.233c0.617-1.023,1.37-1.955,2.237-2.776c0.946-0.896,2.09-2.006,2.645-2.648
						c4.494,1.798,8.988,3.595,13.483,5.393v49.491H222.785z"/>
				</g>
			</g>
			<g>
				<g>
					<g>
						<path style="fill:#063E8E;" d="M248.629,237.057c0.026,0,0.051-0.006,0.076-0.018c0.085-0.042,0.12-0.145,0.078-0.23
							c-2.831-5.734-2.778-17.753-2.727-29.376c0.031-7.109,0.061-13.824-0.55-18.967c-0.011-0.094-0.097-0.161-0.191-0.15
							c-0.094,0.011-0.162,0.097-0.15,0.191c0.609,5.122,0.579,11.826,0.548,18.925c-0.051,11.663-0.104,23.723,2.763,29.53
							C248.505,237.022,248.566,237.057,248.629,237.057z"/>
					</g>
				</g>
			</g>
			<g>
				<g>
					<g>
						<path style="fill:#063E8E;" d="M245.335,188.486c0,0-0.61-2.443-2.01-3.563s-8.23-5.466-8.421-5.514
							c-0.191-0.048-4.121,2.523-4.121,2.523l5.353,7.599c0,0,5.489-3.858,6.773-3.53
							C244.137,186.323,245.335,188.486,245.335,188.486z"/>
					</g>
				</g>
			</g>
			<g>
				<g>
					<path style="fill:#063E8E;" d="M245.335,188.486c0,0,0.435-1.667,1.197-2.608c0.884-1.09,4.379-4.24,4.678-4.218
						c0.299,0.014,2.689,1.796,3.217,2.872c0.527,1.076,0.228,6.163,0.228,6.163s-5.002-4.76-6.954-4.218
						C246.404,186.84,245.335,188.486,245.335,188.486z"/>
				</g>
			</g>
		</g>
		<g>
			<g>
				<g>
					<path style="fill:#FFFFFF;" d="M228.869,286.796c0-12.733,0.454-40.164,5.223-48.776c5.5-9.928,5.844-39.764,4.95-45.432
						c-0.894-5.67-6.836-11.257-6.836-11.257s-9.622,4.08-11.798,6.205c-0.081,0.081-0.151,0.156-0.21,0.229
						c-2.392,2.93,1.62,32.888-2.56,49.284c-0.004,0.015-0.037,0.148-0.105,0.413c-8.935,35.153-10.572,39.54-8.107,43.466
						C210.906,283.284,215.008,287.295,228.869,286.796z"/>
				</g>
			</g>
			<g>
				<g>
					<path style="fill:#FFFFFF;" d="M217.533,237.461c12.921-5.089,8.136-31.328,2.875-49.925c-0.081,0.081-0.151,0.156-0.21,0.229
						c-2.392,2.93,1.62,32.888-2.56,49.284C217.604,237.186,217.568,237.323,217.533,237.461z"/>
				</g>
			</g>
			<g>
				<g>
					<path style="fill:#97D0F0;" d="M239.25,213.168c0,0,1.38-15.76,0.045-20.834c-1.335-5.074-5.197-11.522-6.24-11.749
						c-1.724-0.369-5.579,2.618-5.579,2.618s3.123,5.405,4.044,13.602c0.084,0.739,6.208,3,6.208,3s-4.782,3.499-4.718,3.843
						C233.081,204.005,239.25,213.168,239.25,213.168z"/>
				</g>
			</g>
		</g>
		<g>
			<g>
				<g>
					<path style="fill:#FFFFFF;" d="M279.758,282.857c-8.291,1.287-16.582,2.573-24.873,3.86
						c-2.454-27.874-2.354-45.875-1.715-57.466c0.244-4.436,1.14-18.336-0.25-36.878c-0.337-4.495-0.728-8.19-1.011-10.647
						c12.519,1.942,16.382,6.009,17.664,9.25c2.306,5.83-3.072,10.663-4.146,22.444c-0.57,6.252,0.985,10.633,2.109,18.189
						C270.59,252.155,276.088,271.277,279.758,282.857z"/>
				</g>
			</g>
			<g>
				<g>
					<path style="fill:#97D0F0;" d="M253.846,213.42c0,0-1.354-10.673-1.354-18.093c0-7.212-0.957-12.325-1.21-13.548
						c-0.008-0.04-0.071-0.119-0.071-0.119v-0.204c0,0,4.631,1.345,5.15,2.11c0.518,0.765,2.961,5.152,4.212,13.466
						c0.207,1.374-5.366,2.508-5.366,2.508s4.296,3.337,4.296,4.173C259.496,205.333,253.846,213.42,253.846,213.42z"/>
				</g>
			</g>
		</g>
		<g>
			<g>
				<path style="fill:#72A2BA;" d="M253.572,183.418c0.879,1.836,1.876,5.117,1.633,10.319c-0.013,0.27,0.197,0.5,0.466,0.512h0.024
					c0.26,0,0.477-0.205,0.489-0.467c0.327-7.005-1.476-10.788-2.772-12.572c-0.48-0.025-0.918-0.04-1.301-0.047
					C252.496,181.591,253.044,182.317,253.572,183.418z"/>
			</g>
		</g>
		<g>
			<g>
				<circle style="fill:#5D74B2;" cx="233.126" cy="201.942" r="2.905"/>
			</g>
			<g>
				<g>
					<path style="fill:#72A2BA;" d="M232.664,201.994c0.027,0.252,0.24,0.438,0.487,0.438c0.018,0,0.035-0.001,0.053-0.003
						c0.268-0.029,0.463-0.27,0.434-0.54c-0.812-7.551-0.073-13.573,0.691-17.294c0.493-2.402,1.059-4.183,1.438-5.233
						c-0.343-0.029-0.687-0.04-1.03-0.034h-0.001c-0.383,1.098-0.898,2.793-1.36,5.032
						C232.594,188.157,231.836,194.298,232.664,201.994z"/>
				</g>
			</g>
		</g>
		<path style="fill:#F4B3B3;" d="M214.354,229.407c-2.274-2.924-4.498-5.905-4.569-5.929c-0.041-0.014-11.081,4.354-11.081,4.354
			c1.191,9.962,22.832,23.852,22.832,23.852s1.888-2.65,4.27-6.332C225.806,245.353,221.067,238.285,214.354,229.407z"/>
		<path style="fill:#FFFFFF;" d="M221.526,213.299c1.983-10.032,3.966-20.064,5.949-30.096c-3.737,1.487-14.499,6.332-21.909,18.279
			c-8.624,13.907-6.769,27.865-6.178,31.469c6.159-2.023,12.052-4.774,12.221-4.859c0.294-0.147,3.892-4.353,5.448-6.773
			C219.76,217.117,221.526,213.299,221.526,213.299z"/>
		<path style="fill:#F4B3B3;" d="M237.733,256.396l-3.387-1.031c0,0-1.778-2.681-2.503-5.595c3.463,0.255,6.968-0.9,6.65-2.04
			c-0.127-0.453-5.584-0.753-8.417-2.083c-2.635-1.237-4.105-0.642-4.417-0.442c-2.503,2.65-3.18,4.421-4.354,6.326
			c0.046,0.043,9.494,6.31,9.494,6.31s2.325,0.335,4.579,0.469c1.514,0.09,5.154,0.294,5.154,0.294S240.647,256.87,237.733,256.396z
			"/>
		<path style="fill-rule:evenodd;clip-rule:evenodd;fill:#F4B3B3;" d="M242.831,154.624c0,0-3.495,0.877-5.686,4.314
			c-2.181,3.418-3.765,13.476,3.272,18.069c7.032,4.591,12.616-2.099,12.773-8.566C253.357,161.976,252.108,153.376,242.831,154.624
			z"/>
		<path style="fill-rule:evenodd;clip-rule:evenodd;fill:#F4B3B3;" d="M254.513,166.397c-0.612,1.556-1.829,2.554-2.697,2.187
			c-0.875-0.345-1.072-1.909-0.458-3.464c0.625-1.572,1.834-2.551,2.71-2.203C254.938,163.259,255.14,164.825,254.513,166.397z"/>
		<path style="fill-rule:evenodd;clip-rule:evenodd;fill:#142D4D;" d="M243.561,154.407c0,0-4.559,10.409-8.472,11.382
			c-3.916,0.975-3.908,6.161-3.908,6.161s0.215-12.006,3.904-14.818C238.765,154.343,243.561,154.407,243.561,154.407z"/>
		<path style="fill-rule:evenodd;clip-rule:evenodd;fill:#F4B3B3;" d="M236.623,167.907c0.492,1.672,0.008,3.332-1.093,3.718
			c-1.093,0.363-2.389-0.695-2.88-2.366c-0.497-1.673-0.008-3.332,1.085-3.695C234.828,165.198,236.126,166.233,236.623,167.907z"/>
		<g>
			<g>
				<path style="fill:#EC724C;" d="M245.841,169.875c0.013,0,0.027,0,0.04-0.002c0.368-0.046,2.207-0.324,2.33-1.313
					c0.107-0.865-1.269-3.504-1.546-4.025c-0.074-0.138-0.245-0.19-0.383-0.117c-0.138,0.074-0.19,0.245-0.117,0.383
					c0.609,1.144,1.55,3.156,1.484,3.689c-0.051,0.41-1.126,0.731-1.837,0.82c-0.155,0.019-0.266,0.161-0.246,0.316
					C245.583,169.769,245.703,169.873,245.841,169.875z"/>
			</g>
			<g>
				<path d="M250.381,165.013c0.029,0.484-0.303,0.898-0.742,0.924s-0.819-0.344-0.848-0.828c-0.029-0.484,0.303-0.898,0.742-0.924
					C249.972,164.159,250.352,164.529,250.381,165.013z"/>
			</g>
			<g>
				<path d="M240.485,162.624c0.068,0.001,0.136-0.022,0.19-0.069c1.245-1.082,2.808-0.256,2.824-0.248
					c0.138,0.074,0.31,0.023,0.384-0.114c0.074-0.138,0.023-0.31-0.114-0.384c-0.078-0.042-1.928-1.018-3.466,0.318
					c-0.118,0.103-0.131,0.282-0.028,0.4C240.331,162.589,240.408,162.622,240.485,162.624z"/>
			</g>
			<g>
				<path d="M248.317,162.042c0.061,0.001,0.123-0.018,0.175-0.057l0,0c0.042-0.031,1.023-0.753,1.978-0.056
					c0.127,0.092,0.304,0.065,0.396-0.062s0.065-0.304-0.062-0.396c-1.041-0.76-2.192-0.291-2.655,0.063
					c-0.124,0.095-0.148,0.273-0.053,0.397C248.151,162.002,248.233,162.041,248.317,162.042z"/>
			</g>
			<g>
				<path d="M243.019,171.499c3.904,0.794,5.585,0.054,5.585,0.054s0.189,2.433-2.08,2.696
					C243.278,174.623,243.019,171.499,243.019,171.499z"/>
			</g>
			<g>
				<path style="fill:#FFFFFF;" d="M248.47,171.601c0,0-0.09,0.453-0.127,0.544c-0.039,0.089-0.41,0.361-1.998,0.488
					c-1.343,0.109-2.747-0.249-3.144-0.362c-0.153-0.437-0.18-0.773-0.18-0.773c0.228,0.047,0.449,0.087,0.663,0.123
					c2.836,0.485,4.345,0.12,4.784-0.021C248.47,171.601,248.47,171.601,248.47,171.601z"/>
			</g>
			<g>
				<ellipse transform="matrix(0.9982 -0.0603 0.0603 0.9982 -9.5567 14.9588)" cx="242.915" cy="165.723" rx="0.821" ry="0.904"/>
			</g>
		</g>
		<path style="fill:#F4B3B3;" d="M274.469,223.725c3.602-0.862,7.202-1.8,7.272-1.773c0.041,0.015,5.93,10.324,5.93,10.324
			c-7.155,7.033-32.73,4.354-32.73,4.354s0.182-3.249,0.623-7.612C255.564,229.018,263.68,226.462,274.469,223.725z"/>
		<path style="fill:#FFFFFF;" d="M265.062,212.955c-1.784-9.792-3.569-19.585-5.353-29.377c3.629,1.307,14.108,5.617,21.442,16.832
			c9.317,14.248,6.669,29.107,6.048,32.197c-6.159-2.024-12.052-4.774-12.221-4.859c-0.294-0.147-3.892-4.353-5.448-6.773
			C266.828,216.773,265.062,212.955,265.062,212.955z"/>
		<g>
			<polygon style="fill:#5D74B2;" points="270.784,187.18 261.071,227.48 231.488,227.037 239.636,187.18 			"/>
		</g>
		<path style="fill:#F4B3B3;" d="M244.43,230.743l3.288,1.312c0,0,3.063-0.982,5.451-2.804c-2.863-1.965-4.878-5.057-3.917-5.748
			c0.382-0.275,4.83,2.901,7.873,3.633c2.83,0.681,3.606,2.064,3.725,2.415c0.298,3.633-0.28,5.438-0.554,7.66
			c-0.063,0.005-11.355-1.006-11.355-1.006s-2.024-1.191-3.867-2.495c-1.238-0.876-4.208-2.99-4.208-2.99
			S241.859,229.292,244.43,230.743z"/>
	</g>
	<g>
		<g>
			<path style="fill:#2CBF7B;" d="M66.352,389.771c-27.114-9.682-29.943-31.87-29.943-31.87c19.639,3.495,35.127,15.61,35.127,15.61
				s6.916,3.658,13.369,7.885L66.352,389.771z"/>
			<path style="fill:#033A3F;" d="M36.41,357.901c0.765,0.748,1.547,1.479,2.35,2.187c0.794,0.718,1.612,1.409,2.422,2.11
				c0.826,0.68,1.65,1.365,2.488,2.031l1.262,0.993c0.421,0.331,0.84,0.665,1.27,0.983c0.857,0.641,1.705,1.297,2.577,1.92
				l2.619,1.862l2.669,1.79l0.668,0.447l0.679,0.429l1.359,0.858l1.361,0.854c0.456,0.281,0.922,0.546,1.383,0.819
				c0.925,0.54,1.844,1.092,2.774,1.622l2.826,1.531l0.706,0.383c0.235,0.129,0.47,0.256,0.712,0.371l1.441,0.71l1.441,0.71
				l0.72,0.355c0.239,0.121,0.48,0.236,0.726,0.343l2.932,1.313c0.492,0.212,0.976,0.44,1.474,0.638l1.495,0.588
				c0.995,0.394,1.993,0.782,2.991,1.166c-0.979-0.433-1.959-0.862-2.941-1.285l-1.471-0.638c-0.49-0.214-0.966-0.459-1.449-0.687
				l-2.897-1.372c-0.243-0.111-0.481-0.232-0.717-0.357l-0.711-0.369l-1.422-0.738c-1.909-0.959-3.756-2.035-5.628-3.063
				l-2.758-1.63c-0.458-0.274-0.922-0.539-1.375-0.821l-1.354-0.855l-1.357-0.851l-0.679-0.425l-0.667-0.443l-2.67-1.772
				l-2.632-1.828c-0.442-0.3-0.866-0.625-1.301-0.935l-1.3-0.937c-0.436-0.309-0.861-0.633-1.287-0.954l-1.28-0.965
				c-0.851-0.646-1.685-1.315-2.527-1.973C39.659,360.683,38.012,359.319,36.41,357.901z"/>
			<path style="fill:#033A3F;" d="M56.574,366.817c0.038,0.648,0.124,1.286,0.226,1.92c0.099,0.635,0.226,1.264,0.359,1.891
				c0.141,0.626,0.289,1.25,0.464,1.868c0.172,0.619,0.361,1.234,0.598,1.839c-0.038-0.648-0.123-1.286-0.225-1.921
				c-0.099-0.635-0.226-1.264-0.359-1.891c-0.142-0.626-0.289-1.25-0.465-1.868C56.999,368.037,56.81,367.422,56.574,366.817z"/>
			<path style="fill:#033A3F;" d="M66.164,378.734c-1.027,0.104-2.045,0.255-3.059,0.423c-1.015,0.165-2.024,0.358-3.033,0.556
				c-1.006,0.207-2.012,0.421-3.011,0.662c-1,0.238-1.997,0.493-2.984,0.796c1.027-0.103,2.045-0.254,3.06-0.422
				c1.015-0.165,2.024-0.358,3.032-0.557c1.006-0.208,2.012-0.421,3.011-0.663C64.18,379.291,65.177,379.037,66.164,378.734z"/>
			<path style="fill:#033A3F;" d="M50.951,369.673c-0.577,0.004-1.146,0.055-1.712,0.123c-0.566,0.068-1.128,0.153-1.687,0.257
				c-0.559,0.102-1.115,0.225-1.668,0.363c-0.553,0.139-1.102,0.294-1.643,0.498c0.578-0.003,1.146-0.055,1.712-0.123
				c0.565-0.069,1.128-0.153,1.687-0.258c0.559-0.103,1.115-0.225,1.667-0.364C49.861,370.031,50.411,369.875,50.951,369.673z"/>
		</g>
		<g>
			<path style="fill:#027369;" d="M73.592,395.134c-0.261-1.384-0.473-2.847-0.617-4.402c-1.664-18.095-0.422-20.71-13.604-32.096
				c-13.182-11.386-12.072-20.473-8.426-32.202c3.646-11.729-12.283-30.828-3.38-38.779c8.903-7.951,8.057,14.08,19.838,20.315
				c11.782,6.235,17.038,10.012,21.159,21.583c4.121,11.571-4.835,16.933,5.679,24.488c10.514,7.555,18.486,11.116,24.937,20.81
				c2.053,3.085,7.701,15.993,4.842,19.256L73.592,395.134z"/>
			<path style="fill:#033A3F;" d="M72.975,390.731c-0.153-3.04-0.289-6.076-0.52-9.113c-0.111-1.519-0.256-3.038-0.477-4.554
				c-0.222-1.514-0.527-3.027-0.999-4.5c-0.477-1.47-1.145-2.884-1.975-4.186c-0.835-1.3-1.8-2.502-2.839-3.628
				c-2.09-2.24-4.411-4.224-6.794-6.116l0.824,0.79l0.83,0.781c0.542,0.533,1.096,1.053,1.628,1.595
				c0.535,0.539,1.078,1.067,1.591,1.625c0.256,0.279,0.528,0.543,0.777,0.828l0.754,0.846c0.977,1.15,1.911,2.334,2.69,3.614
				c0.788,1.273,1.425,2.632,1.877,4.059c0.469,1.421,0.77,2.899,1.01,4.388c0.253,1.488,0.412,2.997,0.584,4.506l0.483,4.535
				C72.6,387.711,72.761,389.224,72.975,390.731z"/>
			<path style="fill:#033A3F;" d="M49.542,289.173c3.377,9.931,7.634,19.544,12.212,28.979c2.29,4.72,4.732,9.365,7.25,13.967
				c2.515,4.605,5.162,9.136,7.882,13.622c2.729,4.481,5.593,8.879,8.526,13.229l2.219,3.25l2.269,3.215
				c1.494,2.156,3.086,4.242,4.638,6.357l2.393,3.123l1.198,1.56c0.399,0.521,0.815,1.027,1.221,1.542l2.453,3.075
				c0.404,0.516,0.83,1.015,1.247,1.521l1.257,1.513c3.35,4.035,6.837,7.954,10.39,11.808l-2.575-2.971
				c-0.86-0.989-1.729-1.969-2.562-2.981l-2.522-3.014l-0.63-0.753l-0.616-0.765l-1.231-1.532c-3.32-4.054-6.483-8.231-9.609-12.434
				l-2.299-3.185l-1.152-1.591l-1.128-1.608l-2.252-3.218l-2.202-3.253c-2.911-4.353-5.752-8.755-8.461-13.237
				c-2.733-4.467-5.393-8.98-7.921-13.567c-2.54-4.58-4.964-9.224-7.323-13.9c-2.351-4.681-4.59-9.418-6.716-14.206
				C53.368,298.932,51.339,294.098,49.542,289.173z"/>
			<path style="fill:#033A3F;" d="M70.838,313.801c-0.408,1.234-0.75,2.481-1.071,3.733c-0.166,0.625-0.309,1.255-0.463,1.882
				l-0.426,1.89l-0.391,1.898c-0.118,0.635-0.248,1.268-0.353,1.906c-0.224,1.273-0.425,2.551-0.561,3.843
				c0.408-1.233,0.752-2.481,1.072-3.733c0.166-0.625,0.308-1.255,0.463-1.882l0.425-1.89l0.39-1.898
				c0.118-0.635,0.248-1.268,0.353-1.906C70.5,316.371,70.701,315.093,70.838,313.801z"/>
			<path style="fill:#033A3F;" d="M80.732,351.217c-2.052-0.483-4.115-0.901-6.182-1.296c-1.032-0.204-2.069-0.384-3.103-0.575
				l-3.109-0.538l-3.115-0.502c-1.04-0.155-2.079-0.322-3.121-0.465c-2.083-0.298-4.17-0.573-6.268-0.782
				c2.052,0.484,4.115,0.902,6.182,1.297c1.032,0.204,2.069,0.383,3.103,0.575l3.109,0.537l3.115,0.501
				c1.04,0.155,2.079,0.322,3.122,0.465C76.547,350.732,78.634,351.007,80.732,351.217z"/>
			<path style="fill:#033A3F;" d="M102.942,381.732c-2.052-0.483-4.115-0.901-6.182-1.296c-1.032-0.204-2.069-0.384-3.103-0.575
				l-3.109-0.538l-3.115-0.502c-1.041-0.155-2.079-0.322-3.122-0.465c-2.083-0.298-4.17-0.573-6.268-0.782
				c2.052,0.484,4.115,0.902,6.182,1.297c1.032,0.204,2.069,0.383,3.103,0.575l3.109,0.537l3.115,0.501
				c1.04,0.155,2.079,0.322,3.121,0.465C98.757,381.247,100.844,381.522,102.942,381.732z"/>
			<path style="fill:#033A3F;" d="M94.569,358.081c-0.3,0.872-0.535,1.755-0.747,2.643c-0.212,0.888-0.401,1.78-0.564,2.677
				c-0.165,0.896-0.303,1.798-0.419,2.703c-0.115,0.905-0.207,1.815-0.234,2.737c0.301-0.872,0.536-1.755,0.748-2.643
				c0.211-0.888,0.401-1.78,0.563-2.677c0.164-0.897,0.302-1.798,0.418-2.703C94.449,359.912,94.542,359.003,94.569,358.081z"/>
		</g>
	</g>
	<rect x="30.856" y="390.609" style="fill:#293F60;" width="407.264" height="5.107"/>
</g>
<g id="TEXTS">
</g>
</svg>
