<?xml version="1.0" encoding="utf-8"?>
<!-- Generator: Adobe Illustrator 27.5.0, SVG Export Plug-In . SVG Version: 6.00 Build 0)  -->
<svg version="1.1" xmlns="http://www.w3.org/2000/svg" xmlns:xlink="http://www.w3.org/1999/xlink" x="0px" y="0px"
	 viewBox="0 0 500 500" style="enable-background:new 0 0 500 500;" xml:space="preserve">
<g id="BACKGROUND">
	<rect style="fill:#FFFFFF;" width="500" height="500"/>
</g>
<g id="OBJECT">
	<ellipse style="fill:#E0E0E0;" cx="72.333" cy="451.333" rx="36" ry="5.667"/>
	<ellipse style="fill:#E0E0E0;" cx="237.333" cy="451.333" rx="103.667" ry="5.667"/>
	<ellipse style="fill:#E0E0E0;" cx="409.333" cy="451.333" rx="59" ry="5.667"/>
	<g>
		<g>
			<g>
				<g>
					<polygon style="fill:#704D4D;" points="53.942,365.336 54.878,445.233 67.522,445.233 70.768,365.336 					"/>
					<polygon style="fill:#704D4D;" points="73.25,365.336 76.496,445.233 89.141,445.233 90.077,365.336 					"/>
				</g>
				<path style="fill:#678FC1;" d="M68.136,279.488l0.179,16.933h7.491V279.54c-1.107,0.748-2.4,1.308-3.796,1.308
					C70.582,280.848,69.26,280.262,68.136,279.488z"/>
				<path style="fill:#3D5D7F;" d="M72.01,280.848c-1.428,0-2.749-0.586-3.873-1.36l0.022,1.584
					c1.119,0.767,2.433,1.346,3.851,1.346c1.396,0,2.689-0.56,3.796-1.308v-1.569C74.699,280.287,73.405,280.848,72.01,280.848z"/>
				<path style="fill:#EAEAE4;" d="M81.69,279.085c0,0-4.57,4.248-8.258,5.494v1.276l-0.665,8.916l-0.987-2.577
					c-0.791-2.066-1.201-4.321-1.201-6.605v-1.012c-3.687-1.248-8.252-5.492-8.252-5.492l-9.593,4.167l-1.602,0.75
					c0,0-1.674,82.584-1.674,101.391h45.1c0-18.807-1.694-101.391-1.694-101.391L81.69,279.085z"/>
				<polygon style="fill:#CECECA;" points="72.768,294.772 72.768,385.393 71.287,290.704 				"/>
				<path style="fill:#FFC1A9;" d="M79.862,267.979c0,0-0.547,4.198-0.347,7.771c0,0-3.292,5.098-7.506,5.098
					c-4.214,0-7.506-5.098-7.506-5.098c0.2-3.573-0.347-7.771-0.347-7.771H79.862z"/>
				<path style="fill:#FFC1A9;" d="M84.594,252.957c0.243-0.17,0.505-0.253,0.771-0.224c0.964,0.102,1.625,1.608,1.474,3.364
					c-0.15,1.755-1.054,3.095-2.018,2.993c-0.267-0.028-0.51-0.164-0.719-0.383L84.594,252.957z"/>
				<path style="fill:#FFC1A9;" d="M59.426,252.957c-0.243-0.17-0.505-0.253-0.771-0.224c-0.964,0.102-1.625,1.608-1.474,3.364
					c0.15,1.755,1.054,3.095,2.018,2.993c0.267-0.028,0.51-0.164,0.719-0.383L59.426,252.957z"/>
				<path style="fill:#FFC1A9;" d="M72.01,273.291L72.01,273.291c-5.577,0-10.51-4.286-11.463-10.259l-1.277-8.004
					c-1.38-8.652,4.477-16.842,12.74-16.842h0c8.263,0,14.121,8.19,12.74,16.842l-1.277,8.004
					C82.52,269.005,77.586,273.291,72.01,273.291z"/>
				<circle style="fill:#513A32;" cx="67.428" cy="253.944" r="0.878"/>
				<path style="fill:#513A32;" d="M69.798,251.596l-2.177-0.532c-0.365-0.089-0.745-0.098-1.114-0.026l-2.337,0.458
					c-0.092,0.018-0.158,0.098-0.158,0.192v0.513c0,0.119,0.106,0.211,0.224,0.194l2.366-0.341c0.309-0.045,0.622-0.047,0.932-0.006
					l2.251,0.295c0.158,0.021,0.298-0.102,0.298-0.261v-0.124C70.081,251.786,69.964,251.637,69.798,251.596z"/>
				<circle style="fill:#513A32;" cx="76.6" cy="253.944" r="0.878"/>
				<path style="fill:#513A32;" d="M74.222,251.596l2.177-0.532c0.365-0.089,0.745-0.098,1.114-0.026l2.337,0.458
					c0.092,0.018,0.158,0.098,0.158,0.192v0.513c0,0.119-0.106,0.211-0.224,0.194l-2.366-0.341
					c-0.309-0.045-0.622-0.047-0.932-0.006l-2.251,0.295c-0.158,0.021-0.298-0.102-0.298-0.261v-0.124
					C73.938,251.786,74.055,251.637,74.222,251.596z"/>
				<ellipse style="fill:#FCAA90;" cx="67.428" cy="255.991" rx="1.281" ry="0.641"/>
				<ellipse style="fill:#FCAA90;" cx="76.6" cy="255.991" rx="1.281" ry="0.641"/>
				<path style="fill:#ED9077;" d="M72.01,265.755c3.541,0,5-3.395,5-3.395s-2.187,0.967-5,0.967c-2.812,0-5-0.967-5-0.967
					S68.468,265.755,72.01,265.755z"/>
				<path style="fill:#FFFFFF;" d="M72.01,264.59c3.251,0,4.59-2.23,4.59-2.23s-2.008,0.709-4.59,0.709
					c-2.582,0-4.59-0.709-4.59-0.709S68.758,264.59,72.01,264.59z"/>
				<path style="fill:#513A32;" d="M72.907,260.567c0,0,3.181,0.154,4.974,1.638c0,0-3.951,0.996-5.872,0.996
					c-1.921,0-5.872-0.996-5.872-0.996c1.793-1.485,4.974-1.638,4.974-1.638H72.907z"/>
				<path style="fill:#FF8888;" d="M71.028,253.564v7.128c0,0.542,0.44,0.982,0.982,0.982s0.982-0.44,0.982-0.982v-7.128H71.028z"/>
				<path style="fill:#513A32;" d="M72.01,238.186L72.01,238.186c-8.263,0-14.121,8.19-12.74,16.842l1.265,7.93l0,0l0.012,0.074
					c0.953,5.973,5.887,10.259,11.463,10.259h0c5.577,0,10.51-4.286,11.463-10.259l0.012-0.074l0,0l1.265-7.93
					C86.131,246.376,80.273,238.186,72.01,238.186z M68.685,266.9l-4.287-2.387c-1.725-0.96-2.794-2.78-2.794-4.754v-1.969v-1.111
					v-1.498c0-0.494,0.196-0.968,0.545-1.317l0.31-0.31c0.349-0.349,0.545-0.823,0.545-1.317v-4.185
					c0-0.242,0.021-0.481,0.063-0.716c0.078-0.443,0.228-0.87,0.443-1.263c0.186-0.341,0.422-0.656,0.701-0.936h0
					c0.193-0.193,0.404-0.365,0.628-0.515c0.672-0.448,1.467-0.692,2.287-0.692h4.884h4.884c0.456,0,0.904,0.076,1.328,0.22
					c0.292,0.099,0.572,0.231,0.836,0.394c0.27,0.167,0.523,0.365,0.751,0.594h0c0.253,0.253,0.469,0.535,0.646,0.838
					c0.12,0.207,0.223,0.423,0.305,0.647c0.168,0.453,0.256,0.937,0.256,1.43v0.659v0.966v2.56c0,0.494,0.196,0.968,0.545,1.317
					l0.31,0.31c0.349,0.349,0.545,0.823,0.545,1.317v1.498v1.642v1.352v0.085c0,1.974-1.069,3.794-2.794,4.754l-4.287,2.387
					C73.267,268.052,70.752,268.052,68.685,266.9z"/>
				<path style="fill:#CECECA;" d="M81.666,279.085l1.554,0.666c0,0-4.143,4.932-9.756,5.874l-0.031-1.048L81.666,279.085z"/>
				<path style="fill:#CECECA;" d="M62.347,279.085l-1.554,0.666c0,0,1.892,3.179,6.002,4.663c1.212,0.438,2.534,0.473,3.785,0.163
					l0,0L62.347,279.085z"/>
				<path style="fill:#EAEAE4;" d="M79.49,275.243c0,0,2.176,1.911,2.176,3.842c0,0-2.466,4.237-8.233,5.493v-2.806
					c0-0.973,0.473-1.886,1.271-2.443C76.066,278.378,78.628,276.608,79.49,275.243z"/>
				<path style="fill:#EAEAE4;" d="M64.504,275.243c0,0-2.176,1.911-2.176,3.842c0,0,2.466,4.237,8.233,5.493v-2.806
					c0-0.973-0.473-1.886-1.271-2.443C67.928,278.378,65.365,276.608,64.504,275.243z"/>
				<g>
					<circle style="fill:#FFFFFF;" cx="68.544" cy="281.934" r="1.014"/>
					<g>
						<circle style="fill:#CCCCCC;" cx="68.544" cy="281.512" r="0.229"/>
						<circle style="fill:#CCCCCC;" cx="68.544" cy="282.355" r="0.229"/>
						<circle style="fill:#CCCCCC;" cx="68.965" cy="281.934" r="0.229"/>
						<circle style="fill:#CCCCCC;" cx="68.123" cy="281.934" r="0.229"/>
					</g>
				</g>
				<g>
					<circle style="fill:#FFFFFF;" cx="75.384" cy="281.934" r="1.014"/>
					<g>
						<circle style="fill:#CCCCCC;" cx="75.384" cy="281.512" r="0.229"/>
						<circle style="fill:#CCCCCC;" cx="75.384" cy="282.355" r="0.229"/>
						<circle style="fill:#CCCCCC;" cx="75.806" cy="281.934" r="0.229"/>
						<circle style="fill:#CCCCCC;" cx="74.963" cy="281.934" r="0.229"/>
					</g>
				</g>
				<path style="fill:#CECECA;" d="M51.133,284.002l1.602-0.75c0,0,3.878,18.698,3.403,35.524c-0.033,1.162-0.243,0.573-0.594,0.071
					L51.133,284.002z"/>
				<path style="fill:#CECECA;" d="M75.722,316.429c0,0-15.723,1.065-19.93,1.482l-1.476,1.857L75.722,316.429z"/>
				<path style="fill:#EAEAE4;" d="M51.133,284.002c0,0-7.567,5.132-7.567,19.347l-1.257,24.007c0,3.469,2.586,6.081,5.377,5.431
					l25.75-5.704c1.38-0.321,2.361-1.64,2.348-3.158l-0.062-7.497l-20.178,2.419C55.544,318.848,55.774,297.46,51.133,284.002z"/>
				<path style="fill:#CECECA;" d="M92.865,284.002l-1.602-0.75c0,0-3.878,18.698-3.403,35.524c0.033,1.162,0.243,0.573,0.594,0.071
					L92.865,284.002z"/>
				<path style="fill:#EAEAE4;" d="M91.989,322.826l16.912-7.922l-4.062-12.408c-4.79-15.106-11.974-18.494-11.974-18.494
					c-2.13,6.176-3.234,14.02-3.805,20.703h2.928V322.826z"/>
				<path style="fill:#CECECA;" d="M55.544,318.848c0,0-6.784,4.608-6.963,9.035c0,0-0.866-4.395,6.963-10.442
					C55.544,317.44,55.558,318.579,55.544,318.848z"/>
				<g>
					<circle style="fill:#FFFFFF;" cx="73.48" cy="322.661" r="1.014"/>
					<g>
						<circle style="fill:#CCCCCC;" cx="73.48" cy="322.24" r="0.229"/>
						<circle style="fill:#CCCCCC;" cx="73.48" cy="323.083" r="0.229"/>
						<circle style="fill:#CCCCCC;" cx="73.901" cy="322.661" r="0.229"/>
						<circle style="fill:#CCCCCC;" cx="73.058" cy="322.661" r="0.229"/>
					</g>
				</g>
				<path style="fill:#4E5A75;" d="M102.675,328.288H80.046c-1.195,0-2.165-0.969-2.165-2.165v-33.891
					c0-1.195,0.969-2.165,2.165-2.165h22.629c1.195,0,2.165,0.969,2.165,2.165v33.891
					C104.84,327.319,103.871,328.288,102.675,328.288z"/>
				<polygon style="fill:#CECECA;" points="50.222,332.226 50.197,333.605 73.672,327.017 				"/>
				<path style="fill:#FFC1A9;" d="M108.901,314.904c0,0-1.119-3.172-4.062-3.9v1.899
					C104.84,312.903,107.362,312.739,108.901,314.904z"/>
				<path style="fill:#FCAA90;" d="M103.362,312.903l2.08,0.005c0.436,0.001,0.866,0.105,1.255,0.303l0.942,0.481
					C107.639,313.692,105.872,313.044,103.362,312.903z"/>
				<g>
					<path style="fill:#292B30;" d="M67.852,454.433H54.484c-0.641,0-1.161-0.52-1.161-1.161v-3.758
						c0-4.333,3.512-7.845,7.845-7.845h0c4.333,0,7.845,3.512,7.845,7.845v3.758C69.012,453.914,68.493,454.433,67.852,454.433z"/>
					<path style="fill:#5C6068;" d="M53.323,451.756v1.517c0,0.641,0.52,1.161,1.161,1.161h13.368c0.641,0,1.161-0.52,1.161-1.161
						v-1.517H53.323z"/>
				</g>
				<g>
					<path style="fill:#292B30;" d="M89.401,454.433H76.033c-0.641,0-1.161-0.52-1.161-1.161v-3.758
						c0-4.333,3.512-7.845,7.845-7.845h0c4.333,0,7.845,3.512,7.845,7.845v3.758C90.561,453.914,90.042,454.433,89.401,454.433z"/>
					<path style="fill:#5C6068;" d="M74.872,451.756v1.517c0,0.641,0.52,1.161,1.161,1.161h13.368c0.641,0,1.161-0.52,1.161-1.161
						v-1.517H74.872z"/>
				</g>
				<path style="fill:#BFC6D8;" d="M91.36,294.075c-0.485,0-0.878,0.393-0.878,0.878v28.45c0,0.485,0.393,0.878,0.878,0.878
					s0.878-0.393,0.878-0.878v-28.45C92.239,294.468,91.846,294.075,91.36,294.075z"/>
				<path style="fill:#BFC6D8;" d="M81.492,297.244L81.492,297.244c0,0.427,0.346,0.772,0.772,0.772h6.99v-1.545h-6.99
					C81.838,296.471,81.492,296.817,81.492,297.244z"/>
				<path style="fill:#BFC6D8;" d="M101.234,297.244L101.234,297.244c0,0.427-0.346,0.772-0.772,0.772h-6.99v-1.545h6.99
					C100.889,296.471,101.234,296.817,101.234,297.244z"/>
				<g>
					<path style="fill:#BFC6D8;" d="M89.183,300.73h-1.427c-2.096,0-4.066,0.816-5.548,2.298c-0.264,0.264-0.264,0.692,0,0.957
						c0.132,0.132,0.305,0.198,0.478,0.198s0.346-0.066,0.478-0.198c1.227-1.226,2.857-1.902,4.591-1.902h1.427V300.73z"/>
				</g>
				<g>
					<path style="fill:#BFC6D8;" d="M93.538,300.73h1.427c2.096,0,4.066,0.816,5.548,2.298c0.264,0.264,0.264,0.692,0,0.957
						c-0.132,0.132-0.305,0.198-0.478,0.198c-0.173,0-0.346-0.066-0.478-0.198c-1.227-1.226-2.857-1.902-4.591-1.902h-1.427V300.73z
						"/>
				</g>
				<g>
					<path style="fill:#BFC6D8;" d="M89.183,304.525h-1.427c-2.096,0-4.066,0.816-5.548,2.298c-0.264,0.264-0.264,0.692,0,0.957
						c0.132,0.132,0.305,0.198,0.478,0.198s0.346-0.066,0.478-0.198c1.227-1.226,2.857-1.902,4.591-1.902h1.427V304.525z"/>
				</g>
				<g>
					<path style="fill:#BFC6D8;" d="M93.538,304.525h1.427c2.096,0,4.066,0.816,5.548,2.298c0.264,0.264,0.264,0.692,0,0.957
						c-0.132,0.132-0.305,0.198-0.478,0.198c-0.173,0-0.346-0.066-0.478-0.198c-1.227-1.226-2.857-1.902-4.591-1.902h-1.427V304.525
						z"/>
				</g>
				<g>
					<path style="fill:#BFC6D8;" d="M89.183,308.321h-1.427c-2.096,0-4.066,0.816-5.548,2.298c-0.264,0.264-0.264,0.692,0,0.957
						c0.132,0.132,0.305,0.198,0.478,0.198s0.346-0.066,0.478-0.198c1.227-1.226,2.857-1.902,4.591-1.902h1.427V308.321z"/>
				</g>
				<g>
					<path style="fill:#BFC6D8;" d="M93.538,308.321h1.427c2.096,0,4.066,0.816,5.548,2.298c0.264,0.264,0.264,0.692,0,0.957
						c-0.132,0.132-0.305,0.198-0.478,0.198c-0.173,0-0.346-0.066-0.478-0.198c-1.227-1.226-2.857-1.902-4.591-1.902h-1.427V308.321
						z"/>
				</g>
				<path style="fill:#FFC1A9;" d="M75.722,316.43l12.659-1.344c0.534-0.09,1.039,0.291,1.141,0.862h0
					c0.102,0.571-0.236,1.127-0.764,1.256l-4.573,0.723l0.187,2.177c0.155,1.806-1.043,3.423-2.716,3.665l-5.835,0.845
					L75.722,316.43z"/>
				<path style="fill:#FFC1A9;" d="M105.513,320.642h-3.137c-1.482,0-2.684-1.202-2.684-2.684v-2.37
					c0-1.482,1.202-2.684,2.684-2.684h3.137c2.137,0,3.869,1.732,3.869,3.869l0,0C109.383,318.91,107.65,320.642,105.513,320.642z"
					/>
				<polygon style="fill:#FCAA90;" points="84.185,317.926 81.226,318.476 84.237,318.532 				"/>
				<rect x="53.395" y="349.506" style="fill:#CECECA;" width="14.328" height="1.989"/>
				<rect x="76.295" y="349.506" style="fill:#CECECA;" width="14.328" height="1.989"/>
			</g>
			<g>
				<polygon style="fill:#678FC1;" points="442.489,310.047 435.315,303.268 432.566,304.256 433.408,309.856 440.285,312.672 				
					"/>
				<g>
					<polygon style="fill:#678FC1;" points="390.227,348.951 386.598,348.951 382.297,348.951 377.664,348.951 365.471,348.951 
						366.406,445.233 379.051,445.233 381.66,365.554 386.782,365.554 387.534,445.233 400.179,445.233 403.425,348.951 					"/>
					<g>
						<path style="fill:#292B30;" d="M379.38,454.433h-13.368c-0.641,0-1.161-0.52-1.161-1.161v-3.758
							c0-4.333,3.512-7.845,7.845-7.845l0,0c4.333,0,7.845,3.512,7.845,7.845v3.758C380.541,453.914,380.022,454.433,379.38,454.433
							z"/>
						<path style="fill:#5C6068;" d="M364.852,451.756v1.517c0,0.641,0.52,1.161,1.161,1.161h13.368c0.641,0,1.161-0.52,1.161-1.161
							v-1.517H364.852z"/>
					</g>
					<g>
						<path style="fill:#292B30;" d="M400.508,454.433H387.14c-0.641,0-1.161-0.52-1.161-1.161v-3.758
							c0-4.333,3.512-7.845,7.845-7.845h0c4.333,0,7.845,3.512,7.845,7.845v3.758C401.669,453.914,401.149,454.433,400.508,454.433z
							"/>
						<path style="fill:#5C6068;" d="M385.979,451.756v1.517c0,0.641,0.52,1.161,1.161,1.161h13.368c0.641,0,1.161-0.52,1.161-1.161
							v-1.517H385.979z"/>
					</g>
				</g>
				<rect x="393.25" y="406.298" style="fill:#704D4D;" width="11.706" height="48.135"/>
				<rect x="390.848" y="444.347" style="fill:#292B30;" width="14.108" height="10.086"/>
				<path style="fill:#517BA8;" d="M386.598,348.951h-4.301h-4.633h-12.193l0.05,4.483l14.814,1.554
					c2.194,0.23,4.425,0.346,6.63,0.346c4.464,0,8.941-0.474,13.306-1.409l2.988-0.64l0.166-4.335h-13.198H386.598z"/>
				<path style="fill:#678FC1;" d="M391.93,273.77l-8.602-1.316l-14.553,2.613c-7.347,1.319-12.695,7.712-12.695,15.177v28.14
					c0,2.295,1.448,4.341,3.614,5.103l3.273,1.152v26.88l17.538,1.84c6.488,0.681,13.043,0.332,19.422-1.034l3.762-0.806v-57.552
					l23.722,15.357l7.904-6.055C435.315,303.268,408.054,275.014,391.93,273.77z"/>
				<path style="fill:#3D5D7F;" d="M391.93,273.77l-8.602-1.316l-9.106,1.635l3.619,6.272l0.064,0.104
					c1.245,1.93,3.359,3.082,5.656,3.082c0,0,0,0,0,0c0.871,0,1.724-0.167,2.534-0.496l3.325-1.352
					c1.621-0.66,2.856-2.065,3.303-3.758l1.01-3.832C393.136,273.98,392.536,273.863,391.93,273.77z"/>
				<path style="fill:#FFC1A9;" d="M380.238,265.97l-3.445,7.657l3.177,5.505c1.113,1.726,3.297,2.415,5.199,1.641l3.324-1.352
					c0.915-0.372,1.602-1.153,1.854-2.108l1.321-5.009L380.238,265.97z"/>
				<g>
					<path style="fill:#FFC1A9;" d="M385.557,273.433L385.557,273.433c-5.303-1.726-8.667-7.329-7.725-13.304l1.263-8.006
						c1.366-8.654,9.471-14.629,17.328-12.071v0c7.857,2.558,10.892,12.159,6.901,19.958l-3.692,7.215
						C396.878,272.611,390.86,275.159,385.557,273.433z"/>
					<path style="fill:#ED9077;" d="M393.864,268.336c1.684,0.548,2.762-0.409,2.762-0.409s-1.15-0.001-2.487-0.437
						c-1.337-0.435-2.267-1.111-2.267-1.111S392.181,267.788,393.864,268.336z"/>
					<path style="fill:#513A32;" d="M396.215,264.123c0,0,3.237,1.215,4.628,3.23c0,0-4.387-0.381-6.37-1.026
						c-1.983-0.646-5.754-2.92-5.754-2.92c2.31-0.809,5.643,0.114,5.643,0.114L396.215,264.123z"/>
					<circle style="fill:#513A32;" cx="392.38" cy="256.925" r="0.878"/>
					<path style="fill:#513A32;" d="M397.069,253.504l-1.906-1.179c-0.32-0.198-0.678-0.324-1.052-0.369l-2.364-0.288
						c-0.093-0.011-0.181,0.045-0.21,0.134l-0.159,0.487c-0.037,0.113,0.035,0.233,0.153,0.253l2.355,0.408
						c0.307,0.053,0.606,0.148,0.888,0.283l2.049,0.977c0.144,0.068,0.315-0.005,0.364-0.156l0.039-0.118
						C397.28,253.772,397.215,253.594,397.069,253.504z"/>
					<circle style="fill:#513A32;" cx="401.101" cy="259.764" r="0.878"/>
					<path style="fill:#513A32;" d="M405.146,255.679l-0.568-0.317c-0.328-0.183-0.693-0.292-1.067-0.321l-2.235-0.168
						c-0.171-0.013-0.328,0.093-0.381,0.256l-0.039,0.118c-0.049,0.151,0.046,0.311,0.202,0.341l2.232,0.416
						c0.307,0.057,0.604,0.156,0.884,0.294l0.664,0.327L405.146,255.679z"/>
					
						<ellipse transform="matrix(0.3095 -0.9509 0.9509 0.3095 24.3257 551.2443)" style="fill:#FCAA90;" cx="391.747" cy="258.872" rx="0.641" ry="1.281"/>
					
						<ellipse transform="matrix(0.3095 -0.9509 0.9509 0.3095 27.6476 561.4972)" style="fill:#FCAA90;" cx="400.468" cy="261.711" rx="0.641" ry="1.281"/>
					<path style="fill:#FF8888;" d="M397.389,257.14l-2.206,6.778c-0.168,0.516,0.114,1.07,0.63,1.238
						c0.516,0.168,1.07-0.114,1.238-0.63l2.206-6.778L397.389,257.14z"/>
					<g>
						<path style="fill:#513A32;" d="M395.001,269.787c-2.322,0.455-4.714-0.324-6.323-2.058l-3.337-3.597
							c-1.343-1.447-1.796-3.508-1.185-5.385l0.609-1.872l0.344-1.056l0.464-1.424c0.153-0.47,0.486-0.859,0.926-1.083l0.39-0.199
							c0.44-0.224,0.773-0.614,0.926-1.083l1.295-3.979c0.075-0.23,0.169-0.451,0.281-0.661c0.211-0.397,0.486-0.756,0.812-1.063
							c0.283-0.266,0.604-0.493,0.956-0.673c0.244-0.124,0.497-0.222,0.756-0.295c0.778-0.218,1.609-0.204,2.389,0.049l4.644,1.512
							l4.644,1.512c0.351,0.114,0.674,0.284,0.977,0.483c-0.204-0.759-0.465-1.495-0.787-2.199c-0.101-0.22-0.207-0.436-0.318-0.649
							c-0.335-0.639-0.721-1.249-1.155-1.82c-0.145-0.19-0.295-0.377-0.45-0.559c-0.466-0.546-0.98-1.051-1.54-1.509
							c-1.12-0.917-2.423-1.644-3.897-2.123l0,0c-7.857-2.558-15.962,3.417-17.328,12.071l-1.251,7.932l0,0l-0.012,0.074
							c-0.471,2.987,0.134,5.882,1.52,8.245c0.347,0.591,0.742,1.148,1.181,1.666c0.879,1.035,1.935,1.91,3.13,2.57
							c0.598,0.33,1.23,0.606,1.893,0.822c4.64,1.51,9.827-0.251,12.897-4.323L395.001,269.787z"/>
					</g>
					<path style="fill:#FFC1A9;" d="M383.735,251.861c-0.171-0.22-0.386-0.384-0.644-0.463c-0.976-0.298-2.16,0.675-2.645,2.172
						c-0.485,1.498-0.088,2.953,0.888,3.251c0.256,0.078,0.526,0.063,0.794-0.02L383.735,251.861z"/>
				</g>
				<g>
					<path style="fill:#292B30;" d="M373.716,287.812h-1.639v-4.42c0-2.341,0.477-4.659,1.379-6.803
						c0.937-2.229,2.526-4.123,4.492-5.53h0l-1.021,2.27l-0.134,0.298c-2.173,2.78-3.077,6.237-3.077,9.766V287.812z"/>
				</g>
				<g>
					<path style="fill:#292B30;" d="M393.968,290.488h-1.639v-8.527c0-1.987-0.366-3.932-1.089-5.782l-0.355-0.908l0.405-1.549
						l0.684-0.167l0.792,2.028c0.797,2.04,1.202,4.186,1.202,6.378V290.488z"/>
				</g>
				<circle style="fill:#292B30;" cx="393.149" cy="292.724" r="2.851"/>
				<circle style="fill:#D6D7D8;" cx="393.149" cy="292.724" r="1.553"/>
				<path style="fill:#292B30;" d="M369.768,295.976v-4.431c0-0.778,0.303-1.509,0.853-2.059c0.551-0.551,1.282-0.853,2.06-0.853
					h0.432c0.778,0,1.509,0.303,2.059,0.853c0.55,0.551,0.853,1.282,0.853,2.06v4.431h1.639v-4.431c0-1.215-0.473-2.358-1.333-3.218
					c-0.859-0.86-2.002-1.333-3.218-1.333h-0.432c-1.215,0-2.358,0.473-3.219,1.333c-0.859,0.86-1.333,2.003-1.333,3.218v4.431
					H369.768z"/>
				<g>
					<path style="fill:#D6D7D8;" d="M369.768,295.848h-1.639v6.605c0,1.235,1.001,2.237,2.237,2.237h1.383v-1.468h-1.183
						c-0.441,0-0.799-0.358-0.799-0.799V295.848z"/>
					<path style="fill:#D6D7D8;" d="M376.025,295.848v6.575c0,0.441-0.358,0.799-0.799,0.799h-1.183v1.468h1.383
						c1.235,0,2.237-1.001,2.237-2.237v-6.605H376.025z"/>
				</g>
				<polygon style="fill:#517BA8;" points="403.689,293.966 400.271,290.223 403.689,296.675 				"/>
				<polygon style="fill:#517BA8;" points="366.61,289.873 365.791,316.976 372.608,316.099 367.293,315.98 366.61,289.873 				"/>
				<polygon style="fill:#517BA8;" points="362.967,324.678 371.953,324.678 362.967,326.078 				"/>
				<rect x="388.964" y="300.268" style="fill:#3D5D7F;" width="11.307" height="2.279"/>
				<rect x="385.523" y="406.298" style="fill:#6AC9D1;" width="7.728" height="48.135"/>
				<path style="fill:#FFC1A9;" d="M433.755,304.256c0,0-0.547,2.027-0.347,5.6c0,0-3.292,3.585-7.506,3.585
					c-4.214,0-7.506-3.585-7.506-3.585c0.2-3.573-0.347-5.6-0.347-5.6H433.755z"/>
				<path style="fill:#FFC1A9;" d="M425.902,308.374L425.902,308.374c-5.577,0-10.51-4.286-11.463-10.259l-1.277-8.004
					c-1.38-8.652,4.477-16.842,12.74-16.842h0c8.263,0,14.121,8.19,12.74,16.842l-1.277,8.004
					C436.413,304.088,431.479,308.374,425.902,308.374z"/>
				<path style="fill:#513A32;" d="M425.902,273.269L425.902,273.269c-8.263,0-14.121,8.19-12.74,16.842l0.18,1.129l8.982,9.832
					c1.279,1.399,3.087,2.197,4.982,2.197h0.978h7.031c0.254-0.369,0.489-0.755,0.704-1.155c0.006-0.011,0.011-0.023,0.017-0.034
					c0.189-0.354,0.358-0.723,0.514-1.099c0.04-0.098,0.079-0.198,0.117-0.297c0.118-0.306,0.223-0.62,0.318-0.94
					c0.034-0.113,0.07-0.225,0.101-0.34c0.112-0.42,0.21-0.848,0.28-1.288l1.277-8.004
					C440.023,281.459,434.165,273.269,425.902,273.269z"/>
				<path style="fill:#704D4D;" d="M449.635,380.694v15.45h-57.197v-6.822c0-4.765,3.863-8.628,8.628-8.628H449.635z"/>
				<rect x="377.664" y="396.144" style="fill:#54B3B8;" width="80.028" height="10.154"/>
				<rect x="377.664" y="396.144" style="fill:#6AC9D1;" width="36.657" height="10.154"/>
				<rect x="404.956" y="406.298" style="fill:#54B3B8;" width="7.728" height="48.135"/>
				<rect x="424.3" y="406.298" style="fill:#6AC9D1;" width="7.728" height="48.135"/>
				<rect x="443.733" y="406.298" style="fill:#54B3B8;" width="7.728" height="48.135"/>
				<rect x="385.523" y="450.247" style="fill:#197278;" width="7.728" height="4.186"/>
				<rect x="404.956" y="450.247" style="fill:#197278;" width="7.728" height="4.186"/>
				<rect x="424.3" y="450.247" style="fill:#197278;" width="7.728" height="4.186"/>
				<rect x="443.733" y="450.247" style="fill:#197278;" width="7.728" height="4.186"/>
				<rect x="412.594" y="406.298" style="fill:#704D4D;" width="11.706" height="48.135"/>
				<rect x="412.594" y="444.347" style="fill:#292B30;" width="11.706" height="10.086"/>
				<path style="fill:#FFC1A9;" d="M376.284,331.674c-1.356,0.749-2.867,1.173-4.415,1.24l-10.311,0.448l-2.337-4.982
					c-0.32-0.682-1.107-1.01-1.816-0.756c-0.739,0.265-1.138,1.066-0.902,1.815l1.232,3.922h-5.21c-2.477,0-4.485,2.008-4.485,4.485
					v0.566c0,2.477,2.008,4.485,4.485,4.485h9.034h11.017c1.091,0,2.174-0.178,3.208-0.526l26.197-8.836l4.936-18.986
					L376.284,331.674z"/>
				<path style="fill:#E25959;" d="M443.795,314.109l-10.387-4.252l-3.508,0.581c-2.647,0.438-5.348,0.438-7.996,0l-3.508-0.581
					l-10.57,4.268c-0.315,0.127-0.617,0.276-0.912,0.434l0.002-0.008l-0.284,0.161c-0.034,0.02-0.068,0.038-0.102,0.058
					l-15.522,8.674l4.292,12.347l6.644-2.241v47.145h47.69V322.81C449.635,318.993,447.327,315.555,443.795,314.109z"/>
				<path style="fill:#6AC9D1;" d="M457.692,396.144h-43.371v-55.117c0-4.233,3.431-7.664,7.664-7.664h28.043
					c4.233,0,7.664,3.431,7.664,7.664V396.144z"/>
				<g>
					
						<rect x="382.475" y="316.565" transform="matrix(-0.8528 0.5223 -0.5223 -0.8528 878.7785 395.4073)" style="fill:#F4F4F4;" width="2.366" height="10"/>
					
						<rect x="381.715" y="316.779" transform="matrix(-0.8528 0.5223 -0.5223 -0.8528 876.7223 393.5051)" style="fill:#94F7DB;" width="2.366" height="7.09"/>
					
						<rect x="378.954" y="312.631" transform="matrix(-0.8528 0.5223 -0.5223 -0.8528 867.3582 384.8425)" style="fill:#F4F4F4;" width="0.966" height="4.084"/>
					<path style="fill:#F4F4F4;" d="M385.228,326.466l2.083-1.276c0.166-0.102,0.384-0.05,0.485,0.117l0,0
						c0.102,0.166,0.05,0.384-0.117,0.485l-2.083,1.276c-0.166,0.102-0.384,0.05-0.485-0.117l0,0
						C385.009,326.785,385.061,326.568,385.228,326.466z"/>
					<path style="fill:#F4F4F4;" d="M378.969,317.353l3.068-1.879c0.245-0.15,0.565-0.073,0.715,0.172l0,0
						c0.15,0.245,0.073,0.565-0.172,0.715l-3.068,1.879c-0.245,0.15-0.565,0.073-0.715-0.172v0
						C378.647,317.824,378.724,317.503,378.969,317.353z"/>
					<path style="fill:#F4F4F4;" d="M376.808,312.971l2.308-1.414c0.184-0.113,0.425-0.055,0.538,0.129l0,0
						c0.113,0.184,0.055,0.425-0.129,0.538l-2.308,1.414c-0.184,0.113-0.425,0.055-0.538-0.129l0,0
						C376.565,313.324,376.623,313.084,376.808,312.971z"/>
					<polygon style="fill:#9AA1A5;" points="386.41,326.57 388.743,329.684 387.029,326.191 					"/>
					
						<rect x="385.819" y="323.957" transform="matrix(-0.8528 0.5223 -0.5223 -0.8528 884.786 398.8129)" style="fill:#4D4E4F;" width="0.725" height="0.315"/>
					
						<rect x="385.004" y="322.626" transform="matrix(-0.8528 0.5223 -0.5223 -0.8528 882.5815 396.7735)" style="fill:#4D4E4F;" width="0.725" height="0.315"/>
					
						<rect x="384.189" y="321.296" transform="matrix(-0.8528 0.5223 -0.5223 -0.8528 880.377 394.7342)" style="fill:#4D4E4F;" width="0.725" height="0.315"/>
					
						<rect x="383.375" y="319.965" transform="matrix(-0.8528 0.5223 -0.5223 -0.8528 878.1725 392.6948)" style="fill:#4D4E4F;" width="0.725" height="0.315"/>
					
						<rect x="382.56" y="318.635" transform="matrix(-0.8528 0.5223 -0.5223 -0.8528 875.968 390.6554)" style="fill:#4D4E4F;" width="0.725" height="0.315"/>
				</g>
				<path style="fill:#FFC1A9;" d="M378.775,316.099h-2.84l1.616-3.363c0.28-0.582,0.021-1.281-0.57-1.541h0
					c-0.51-0.224-1.107-0.048-1.413,0.417l-2.96,4.487l-0.82,8.58l4.796,1.59c1.954,0.648,4.069-0.38,4.766-2.317l0.998-2.772
					C383.237,318.706,381.404,316.099,378.775,316.099z"/>
				<polygon style="fill:#C64444;" points="401.945,333.549 406.586,331.786 401.945,335.917 				"/>
				<polygon style="fill:#C64444;" points="444.957,333.363 445.298,323.866 445.879,333.363 				"/>
				<path style="fill:#FFC1A9;" d="M442.732,320.314l-3.75-3.149c-0.8-0.672-0.904-1.865-0.232-2.665l3.739-4.453l3.907,3.28
					c1.514,1.271,1.71,3.528,0.439,5.042l-1.438,1.712C444.726,320.882,443.532,320.986,442.732,320.314z"/>
			</g>
			<g>
				<path style="fill:#197278;" d="M265.277,357.18h-55.205v-35.025c0-1.877,1.521-3.398,3.398-3.398h48.409
					c1.877,0,3.398,1.521,3.398,3.398V357.18z"/>
				<g>
					<g>
						<polygon style="fill:#704D4D;" points="219.674,365.336 220.61,445.233 233.255,445.233 236.501,365.336 						"/>
						<polygon style="fill:#704D4D;" points="238.983,365.336 242.229,445.233 254.874,445.233 255.81,365.336 						"/>
					</g>
					<g>
						<path style="fill:#292B30;" d="M233.584,454.433h-13.368c-0.641,0-1.161-0.52-1.161-1.161v-3.758
							c0-4.333,3.512-7.845,7.845-7.845h0c4.333,0,7.845,3.512,7.845,7.845v3.758C234.745,453.914,234.225,454.433,233.584,454.433z
							"/>
						<path style="fill:#5C6068;" d="M219.055,451.756v1.517c0,0.641,0.52,1.161,1.161,1.161h13.368c0.641,0,1.161-0.52,1.161-1.161
							v-1.517H219.055z"/>
					</g>
					<g>
						<path style="fill:#292B30;" d="M255.133,454.433h-13.368c-0.641,0-1.161-0.52-1.161-1.161v-3.758
							c0-4.333,3.512-7.845,7.845-7.845h0c4.333,0,7.845,3.512,7.845,7.845v3.758C256.294,453.914,255.775,454.433,255.133,454.433z
							"/>
						<path style="fill:#5C6068;" d="M240.605,451.756v1.517c0,0.641,0.52,1.161,1.161,1.161h13.368c0.641,0,1.161-0.52,1.161-1.161
							v-1.517H240.605z"/>
					</g>
				</g>
				<g>
					<path style="fill:#678FC1;" d="M233.361,314.897l0.199,18.892h8.358v-18.835c-1.235,0.835-2.678,1.46-4.235,1.46
						C236.09,316.414,234.616,315.76,233.361,314.897z"/>
					<path style="fill:#3D5D7F;" d="M237.683,316.414c-1.593,0-3.068-0.654-4.322-1.518l0.025,1.767
						c1.249,0.855,2.714,1.502,4.297,1.502c1.557,0,3-0.625,4.235-1.46v-1.751C240.683,315.789,239.24,316.414,237.683,316.414z"/>
					<path style="fill:#EAEAE4;" d="M261.534,357.18c-0.325-16.877-0.582-37.247-0.582-37.247l-12.468-5.486
						c0,0-5.099,4.74-9.213,6.129v1.424l-0.742,9.948l-1.101-2.876c-0.882-2.304-1.34-4.821-1.34-7.369v-1.129
						c-4.113-1.393-9.207-6.127-9.207-6.127l-10.703,4.649l-1.788,0.837c0,0-0.254,20.37-0.575,37.247H261.534z"/>
					<polygon style="fill:#CECECA;" points="238.529,357.18 238.529,331.949 236.876,327.411 237.22,357.18 					"/>
					<path style="fill:#FFC1A9;" d="M246.444,302.057c0,0-0.61,4.683-0.387,8.67c0,0-3.673,5.688-8.374,5.688
						c-4.701,0-8.374-5.688-8.374-5.688c0.224-3.987-0.387-8.67-0.387-8.67H246.444z"/>
					<path style="fill:#FFC1A9;" d="M251.724,285.296c0.271-0.19,0.563-0.282,0.86-0.25c1.076,0.114,1.813,1.795,1.645,3.753
						c-0.168,1.958-1.176,3.453-2.252,3.339c-0.297-0.032-0.569-0.183-0.802-0.427L251.724,285.296z"/>
					<path style="fill:#FFC1A9;" d="M223.643,285.296c-0.271-0.19-0.563-0.282-0.86-0.25c-1.076,0.114-1.813,1.795-1.645,3.753
						c0.168,1.958,1.176,3.453,2.252,3.339c0.297-0.032,0.569-0.183,0.802-0.427L223.643,285.296z"/>
					<path style="fill:#FFC1A9;" d="M237.683,307.983L237.683,307.983c-6.222,0-11.726-4.782-12.79-11.446l-1.425-8.93
						c-1.54-9.653,4.995-18.791,14.215-18.791h0c9.219,0,15.755,9.138,14.215,18.791l-1.425,8.93
						C249.41,303.201,243.905,307.983,237.683,307.983z"/>
					<circle style="fill:#513A32;" cx="232.567" cy="288.894" r="0.98"/>
					<path style="fill:#513A32;" d="M235.423,284.93l-2.429-0.593c-0.407-0.099-0.832-0.109-1.243-0.029l-2.607,0.511
						c-0.102,0.02-0.176,0.11-0.176,0.214v0.572c0,0.133,0.118,0.235,0.249,0.216l2.639-0.381c0.345-0.05,0.694-0.052,1.04-0.007
						l2.511,0.329c0.176,0.023,0.332-0.114,0.332-0.292v-0.139C235.739,285.142,235.609,284.976,235.423,284.93z"/>
					<circle style="fill:#513A32;" cx="242.8" cy="288.894" r="0.98"/>
					<path style="fill:#513A32;" d="M240.359,284.93l2.429-0.593c0.407-0.099,0.832-0.109,1.243-0.029l2.607,0.511
						c0.102,0.02,0.176,0.11,0.176,0.214v0.572c0,0.133-0.118,0.235-0.249,0.216l-2.639-0.381c-0.345-0.05-0.694-0.052-1.04-0.007
						l-2.511,0.329c-0.176,0.023-0.332-0.114-0.332-0.292v-0.139C240.043,285.142,240.173,284.976,240.359,284.93z"/>
					<ellipse style="fill:#FCAA90;" cx="232.572" cy="291.178" rx="1.43" ry="0.715"/>
					<ellipse style="fill:#FCAA90;" cx="242.805" cy="291.178" rx="1.43" ry="0.715"/>
					<path style="fill:#ED9077;" d="M237.683,300.797c3.951,0,5.578-3.788,5.578-3.788s-2.441,1.079-5.578,1.079
						s-5.578-1.079-5.578-1.079S233.732,300.797,237.683,300.797z"/>
					<path style="fill:#FFFFFF;" d="M237.683,299.498c3.628,0,5.121-2.488,5.121-2.488s-2.241,0.791-5.121,0.791
						c-2.881,0-5.121-0.791-5.121-0.791S234.056,299.498,237.683,299.498z"/>
					<path style="fill:#513A32;" d="M238.685,295.01c0,0,3.55,0.171,5.55,1.828c0,0-4.408,1.111-6.551,1.111
						c-2.143,0-6.551-1.111-6.551-1.111c2-1.657,5.55-1.828,5.55-1.828H238.685z"/>
					<path style="fill:#FF8888;" d="M236.588,287.196v7.953c0,0.605,0.49,1.095,1.096,1.095c0.605,0,1.095-0.49,1.095-1.095v-7.953
						H236.588z"/>
					<path style="fill:#513A32;" d="M237.683,268.816L237.683,268.816c-9.219,0-15.755,9.138-14.215,18.791l1.412,8.847l0,0
						l0.013,0.083c1.063,6.665,6.568,11.446,12.79,11.446h0c6.222,0,11.726-4.782,12.79-11.446l0.013-0.083l0,0l1.412-8.847
						C253.438,277.954,246.903,268.816,237.683,268.816z M233.973,300.853l-4.783-2.663c-1.924-1.072-3.117-3.101-3.117-5.304
						v-2.196v-1.239v-1.671c0-0.551,0.219-1.079,0.609-1.469l0.345-0.345c0.39-0.39,0.609-0.918,0.609-1.469v-4.669
						c0-0.27,0.024-0.537,0.07-0.799c0.087-0.494,0.255-0.97,0.495-1.409c0.208-0.38,0.47-0.732,0.782-1.044h0
						c0.216-0.216,0.45-0.408,0.7-0.574c0.75-0.5,1.637-0.773,2.551-0.773h5.449h5.449c0.509,0,1.009,0.084,1.482,0.245
						c0.326,0.111,0.639,0.258,0.932,0.439c0.302,0.186,0.583,0.408,0.838,0.662h0c0.282,0.282,0.523,0.596,0.721,0.935
						c0.134,0.23,0.248,0.472,0.341,0.722c0.187,0.506,0.286,1.045,0.286,1.595v0.735v1.078v2.857c0,0.551,0.219,1.079,0.609,1.469
						l0.345,0.345c0.39,0.39,0.609,0.918,0.609,1.469v1.671v1.832v1.509v0.095c0,2.203-1.193,4.233-3.117,5.304l-4.783,2.663
						C239.086,302.137,236.28,302.137,233.973,300.853z"/>
					<path style="fill:#CECECA;" d="M248.457,314.448l1.734,0.743c0,0-4.622,5.503-10.885,6.554l-0.034-1.169L248.457,314.448z"/>
					<path style="fill:#CECECA;" d="M226.903,314.448l-1.734,0.743c0,0,2.111,3.547,6.697,5.203
						c1.353,0.488,2.827,0.528,4.223,0.182l0,0L226.903,314.448z"/>
					<path style="fill:#EAEAE4;" d="M246.029,310.161c0,0,2.428,2.132,2.428,4.287c0,0-2.751,4.728-9.186,6.128v-3.13
						c0-1.086,0.528-2.104,1.418-2.726C242.209,313.659,245.068,311.684,246.029,310.161z"/>
					<path style="fill:#EAEAE4;" d="M229.309,310.161c0,0-2.428,2.132-2.428,4.287c0,0,2.751,4.728,9.186,6.128v-3.13
						c0-1.086-0.528-2.104-1.418-2.726C233.129,313.659,230.27,311.684,229.309,310.161z"/>
					<g>
						<circle style="fill:#FFFFFF;" cx="233.816" cy="317.626" r="1.131"/>
						<g>
							<circle style="fill:#CCCCCC;" cx="233.816" cy="317.155" r="0.256"/>
							<circle style="fill:#CCCCCC;" cx="233.816" cy="318.096" r="0.256"/>
							<circle style="fill:#CCCCCC;" cx="234.286" cy="317.626" r="0.256"/>
							<circle style="fill:#CCCCCC;" cx="233.346" cy="317.626" r="0.256"/>
						</g>
					</g>
					<g>
						<circle style="fill:#FFFFFF;" cx="241.448" cy="317.626" r="1.131"/>
						<g>
							<circle style="fill:#CCCCCC;" cx="241.448" cy="317.155" r="0.256"/>
							<circle style="fill:#CCCCCC;" cx="241.448" cy="318.096" r="0.256"/>
							<circle style="fill:#CCCCCC;" cx="241.919" cy="317.626" r="0.256"/>
							<circle style="fill:#CCCCCC;" cx="240.978" cy="317.626" r="0.256"/>
						</g>
					</g>
				</g>
				<g>
					<g>
						<g>
							<rect x="150.59" y="360.358" style="fill:#54B3B8;" width="166.262" height="60.4"/>
						</g>
					</g>
				</g>
				<g>
					<g>
						<g>
							<rect x="150.59" y="360.358" style="fill:#197278;" width="166.262" height="11.868"/>
						</g>
					</g>
				</g>
				<g>
					<path style="fill:#6AC9D1;" d="M329.459,365.336H137.984c-2.252,0-4.078-1.826-4.078-4.078v0c0-2.252,1.826-4.078,4.078-4.078
						h191.475c2.252,0,4.078,1.826,4.078,4.078v0C333.537,363.51,331.711,365.336,329.459,365.336z"/>
				</g>
				<rect x="225.875" y="355.086" style="fill:#FFFFFF;" width="32.087" height="7.099"/>
				<path style="fill:#FFC1A9;" d="M229.843,348.444l2.279-1.157c0.92-0.467,2.044-0.194,2.646,0.644l0.369,0.513H229.843z"/>
				<path style="fill:#EAEAE4;" d="M214.391,319.933l-9.962,30.874c-1.016,3.149,1.332,6.373,4.64,6.373h20.774v-8.737h-13.736
					L214.391,319.933z"/>
				<polygon style="fill:#CECECA;" points="214.391,319.933 218.435,347.092 229.843,348.444 216.108,348.444 				"/>
				<path style="fill:#EAEAE4;" d="M260.982,319.933l9.962,30.874c1.016,3.149-1.332,6.373-4.64,6.373h-20.774v-8.737h13.736
					L260.982,319.933z"/>
				<polygon style="fill:#CECECA;" points="260.982,319.933 256.938,347.092 245.529,348.444 259.265,348.444 				"/>
				<rect x="150.59" y="420.757" style="fill:#54B3B8;" width="7.088" height="33.676"/>
				<rect x="309.764" y="420.757" style="fill:#54B3B8;" width="7.088" height="33.676"/>
				<rect x="150.59" y="448.051" style="fill:#197278;" width="7.088" height="6.382"/>
				<rect x="309.764" y="448.051" style="fill:#197278;" width="7.088" height="6.382"/>
				<g>
					<path style="fill:#FFC68D;" d="M196.759,357.302h-7.704c-0.797,0-1.443-0.646-1.443-1.443v-12.146h10.59v12.146
						C198.202,356.656,197.556,357.302,196.759,357.302z"/>
					<g>
						<path style="fill:#F4D9BE;" d="M189.904,352.321L189.904,352.321c0.173-0.323,0.575-0.445,0.898-0.273l1.498,0.801
							c0.323,0.173,0.445,0.575,0.273,0.898l0,0c-0.173,0.323-0.575,0.445-0.898,0.273l-1.498-0.801
							C189.853,353.046,189.731,352.644,189.904,352.321z"/>
						<path style="fill:#9B8B7C;" d="M191.561,352.453l-0.758-0.405c-0.323-0.173-0.726-0.051-0.898,0.273
							c-0.173,0.323-0.051,0.726,0.273,0.898l0.758,0.405L191.561,352.453z"/>
					</g>
					<g>
						<path style="fill:#F4D9BE;" d="M197.018,352.928L197.018,352.928c0.075,0.359-0.156,0.71-0.514,0.785l-1.663,0.347
							c-0.359,0.075-0.71-0.156-0.785-0.514l0,0c-0.075-0.359,0.156-0.71,0.514-0.785l1.663-0.347
							C196.592,352.338,196.943,352.569,197.018,352.928z"/>
						<path style="fill:#9B8B7C;" d="M195.662,353.888l0.842-0.175c0.359-0.075,0.589-0.426,0.514-0.785
							c-0.075-0.359-0.426-0.589-0.785-0.514l-0.842,0.175L195.662,353.888z"/>
					</g>
					<g>
						<path style="fill:#F4D9BE;" d="M192.241,346.457L192.241,346.457c-0.191,0.313-0.6,0.411-0.913,0.22l-1.449-0.887
							c-0.313-0.191-0.411-0.6-0.22-0.913l0,0c0.191-0.313,0.6-0.411,0.913-0.22l1.449,0.887
							C192.334,345.736,192.433,346.145,192.241,346.457z"/>
						<path style="fill:#9B8B7C;" d="M190.595,346.228l0.733,0.449c0.313,0.191,0.721,0.093,0.913-0.22
							c0.191-0.313,0.093-0.721-0.22-0.913l-0.733-0.449L190.595,346.228z"/>
					</g>
					<g>
						<path style="fill:#F4D9BE;" d="M196.397,345.852L196.397,345.852c0.074,0.359-0.158,0.71-0.517,0.784l-1.664,0.342
							c-0.359,0.074-0.71-0.158-0.784-0.517l0,0c-0.074-0.359,0.158-0.71,0.517-0.784l1.664-0.342
							C195.973,345.261,196.324,345.492,196.397,345.852z"/>
						<path style="fill:#9B8B7C;" d="M195.038,346.808l0.842-0.173c0.359-0.074,0.59-0.425,0.517-0.784
							c-0.074-0.359-0.425-0.59-0.784-0.517l-0.842,0.173L195.038,346.808z"/>
					</g>
					<path style="fill:#E4EAEA;" d="M198.22,343.713h-10.624c-0.324,0-0.587-0.263-0.587-0.587v-1.751
						c0-0.324,0.263-0.587,0.587-0.587h10.624c0.324,0,0.587,0.263,0.587,0.587v1.751
						C198.806,343.45,198.544,343.713,198.22,343.713z"/>
					<rect x="187.613" y="346.505" style="fill:#4986C9;" width="10.59" height="6.115"/>
					<rect x="188.468" y="349.141" style="fill:#FFFFFF;" width="2.432" height="0.811"/>
					<rect x="191.692" y="349.141" style="fill:#FFFFFF;" width="2.432" height="0.811"/>
					<rect x="194.915" y="349.141" style="fill:#FFFFFF;" width="2.432" height="0.811"/>
					<g>
						<path style="fill:#F4D9BE;" d="M190.189,355.973L190.189,355.973c0-0.367,0.297-0.664,0.664-0.664h1.699
							c0.367,0,0.664,0.297,0.664,0.664l0,0c0,0.367-0.297,0.664-0.664,0.664h-1.699
							C190.486,356.637,190.189,356.34,190.189,355.973z"/>
						<path style="fill:#9B8B7C;" d="M191.713,355.31h-0.86c-0.367,0-0.664,0.297-0.664,0.664c0,0.367,0.297,0.664,0.664,0.664h0.86
							V355.31z"/>
					</g>
					<g>
						<path style="fill:#F4D9BE;" d="M192.576,354.449L192.576,354.449c0.173-0.323,0.575-0.445,0.898-0.273l1.498,0.801
							c0.323,0.173,0.445,0.575,0.273,0.898v0c-0.173,0.323-0.575,0.445-0.898,0.273l-1.498-0.801
							C192.525,355.175,192.403,354.773,192.576,354.449z"/>
						<path style="fill:#9B8B7C;" d="M194.232,354.582l-0.758-0.405c-0.323-0.173-0.726-0.051-0.898,0.273
							c-0.173,0.323-0.051,0.726,0.273,0.898l0.758,0.405L194.232,354.582z"/>
					</g>
				</g>
				<path style="fill:#FFC68D;" d="M182.573,357.302h-7.704c-0.797,0-1.443-0.646-1.443-1.443v-12.146h10.59v12.146
					C184.016,356.656,183.37,357.302,182.573,357.302z"/>
				<g>
					<path style="fill:#F4D9BE;" d="M175.718,352.321L175.718,352.321c0.173-0.323,0.575-0.445,0.898-0.273l1.498,0.801
						c0.323,0.173,0.445,0.575,0.273,0.898l0,0c-0.173,0.323-0.575,0.445-0.898,0.273l-1.498-0.801
						C175.667,353.046,175.545,352.644,175.718,352.321z"/>
					<path style="fill:#9B8B7C;" d="M177.375,352.453l-0.758-0.405c-0.323-0.173-0.726-0.051-0.898,0.273
						c-0.173,0.323-0.051,0.726,0.273,0.898l0.758,0.405L177.375,352.453z"/>
				</g>
				<g>
					<path style="fill:#F4D9BE;" d="M182.832,352.928L182.832,352.928c0.075,0.359-0.156,0.71-0.514,0.785l-1.663,0.347
						c-0.359,0.075-0.71-0.156-0.785-0.514l0,0c-0.075-0.359,0.156-0.71,0.514-0.785l1.663-0.347
						C182.406,352.338,182.757,352.569,182.832,352.928z"/>
					<path style="fill:#9B8B7C;" d="M181.476,353.888l0.842-0.175c0.359-0.075,0.589-0.426,0.514-0.785s-0.426-0.589-0.785-0.514
						l-0.842,0.175L181.476,353.888z"/>
				</g>
				<g>
					<path style="fill:#F4D9BE;" d="M178.055,346.457L178.055,346.457c-0.191,0.313-0.6,0.411-0.913,0.22l-1.449-0.887
						c-0.313-0.191-0.411-0.6-0.22-0.913l0,0c0.191-0.313,0.6-0.411,0.913-0.22l1.449,0.887
						C178.148,345.736,178.247,346.145,178.055,346.457z"/>
					<path style="fill:#9B8B7C;" d="M176.409,346.228l0.733,0.449c0.313,0.191,0.721,0.093,0.913-0.22
						c0.191-0.313,0.093-0.721-0.22-0.913l-0.733-0.449L176.409,346.228z"/>
				</g>
				<g>
					<path style="fill:#F4D9BE;" d="M182.211,345.852L182.211,345.852c0.074,0.359-0.158,0.71-0.517,0.784l-1.664,0.342
						c-0.359,0.074-0.71-0.158-0.784-0.517l0,0c-0.074-0.359,0.158-0.71,0.517-0.784l1.664-0.342
						C181.787,345.261,182.138,345.492,182.211,345.852z"/>
					<path style="fill:#9B8B7C;" d="M180.852,346.808l0.842-0.173c0.359-0.074,0.59-0.425,0.517-0.784s-0.425-0.59-0.784-0.517
						l-0.842,0.173L180.852,346.808z"/>
				</g>
				<path style="fill:#E4EAEA;" d="M184.034,343.713H173.41c-0.324,0-0.587-0.263-0.587-0.587v-1.751
					c0-0.324,0.263-0.587,0.587-0.587h10.624c0.324,0,0.587,0.263,0.587,0.587v1.751C184.62,343.45,184.358,343.713,184.034,343.713
					z"/>
				<rect x="173.427" y="346.505" style="fill:#4986C9;" width="10.59" height="6.115"/>
				<rect x="174.282" y="349.141" style="fill:#FFFFFF;" width="2.432" height="0.811"/>
				<rect x="177.506" y="349.141" style="fill:#FFFFFF;" width="2.432" height="0.811"/>
				<rect x="180.729" y="349.141" style="fill:#FFFFFF;" width="2.432" height="0.811"/>
				<g>
					<path style="fill:#F4D9BE;" d="M176.003,355.973L176.003,355.973c0-0.367,0.297-0.664,0.664-0.664h1.699
						c0.367,0,0.664,0.297,0.664,0.664l0,0c0,0.367-0.297,0.664-0.664,0.664h-1.699C176.3,356.637,176.003,356.34,176.003,355.973z"
						/>
					<path style="fill:#9B8B7C;" d="M177.527,355.31h-0.86c-0.367,0-0.664,0.297-0.664,0.664c0,0.367,0.297,0.664,0.664,0.664h0.86
						V355.31z"/>
				</g>
				<g>
					<path style="fill:#F4D9BE;" d="M178.39,354.449L178.39,354.449c0.173-0.323,0.575-0.445,0.898-0.273l1.498,0.801
						c0.323,0.173,0.445,0.575,0.273,0.898v0c-0.173,0.323-0.575,0.445-0.898,0.273l-1.498-0.801
						C178.339,355.175,178.217,354.773,178.39,354.449z"/>
					<path style="fill:#9B8B7C;" d="M180.046,354.582l-0.758-0.405c-0.323-0.173-0.726-0.051-0.898,0.273
						c-0.173,0.323-0.051,0.726,0.273,0.898l0.758,0.405L180.046,354.582z"/>
				</g>
				<path style="fill:#FFC1A9;" d="M245.529,348.444h-5.963c-1.137,0-2.189,0.6-2.768,1.578l-0.298,0.502
					c-1.142,1.928-0.424,4.42,1.569,5.445l0.165,0.085c1.44,0.741,3.036,1.127,4.655,1.127h2.64V348.444z"/>
				<path style="fill:#FCAA90;" d="M239.667,349.248c-0.167-0.281-0.368-0.534-0.59-0.763c-0.943,0.145-1.784,0.701-2.279,1.537
					l-0.298,0.502c-1.142,1.928-0.424,4.42,1.569,5.445l0.165,0.085c0.199,0.102,0.408,0.182,0.613,0.27
					c1.918-1.508,2.493-4.252,1.201-6.434L239.667,349.248z"/>
				<g>
					<g>
						
							<rect x="231.677" y="344.589" transform="matrix(-0.9113 0.4117 -0.4117 -0.9113 586.3271 563.4858)" style="fill:#C9C9C9;" width="1.606" height="0.594"/>
						
							<rect x="232.863" y="347.214" transform="matrix(-0.9113 0.4117 -0.4117 -0.9113 589.674 568.0146)" style="fill:#C9C9C9;" width="1.606" height="0.594"/>
						<path style="fill:#3A3534;" d="M233.507,349.576L233.507,349.576c0.246-0.111,0.355-0.401,0.244-0.647l-2.099-4.646
							c-0.111-0.246-0.401-0.355-0.647-0.244l0,0c-0.246,0.111-0.355,0.401-0.244,0.647l2.099,4.646
							C232.971,349.578,233.261,349.687,233.507,349.576z"/>
					</g>
					<path style="fill:#3A3534;" d="M238.62,357.055l1.526-0.689c0.176-0.08,0.254-0.287,0.175-0.463l-5.778-12.791
						c-0.27-0.597-0.973-0.863-1.57-0.593v0c-0.597,0.27-0.863,0.973-0.593,1.57l5.778,12.791
						C238.236,357.056,238.443,357.134,238.62,357.055z"/>
					<polygon style="fill:#C6C6C6;" points="239.892,356.48 241.261,359.512 239.722,358.931 238.831,356.959 					"/>
				</g>
				<path style="fill:#FFC1A9;" d="M229.843,348.444h5.963c1.137,0,2.189,0.6,2.768,1.578l0.298,0.502
					c1.142,1.928,0.424,4.42-1.569,5.445l-0.165,0.085c-1.44,0.741-3.036,1.127-4.655,1.127h-2.64V348.444z"/>
				<g>
					<g>
						<path style="fill:#292B30;" d="M225.117,326.914h-1.639v-4.42c0-2.341,0.477-4.659,1.379-6.803
							c0.937-2.229,2.526-4.123,4.492-5.53l0,0l-1.021,2.27l-0.134,0.298c-2.173,2.78-3.077,6.237-3.077,9.766V326.914z"/>
					</g>
					<g>
						<path style="fill:#292B30;" d="M250.227,326.914h1.639v-4.42c0-2.341-0.477-4.659-1.379-6.803
							c-0.937-2.229-2.526-4.123-4.492-5.53h0l1.021,2.27l0.134,0.298c2.173,2.78,3.077,6.237,3.077,9.766V326.914z"/>
					</g>
					<circle style="fill:#292B30;" cx="251.035" cy="329.59" r="2.851"/>
					<circle style="fill:#D6D7D8;" cx="251.035" cy="329.59" r="1.553"/>
					<path style="fill:#292B30;" d="M221.169,335.078v-4.431c0-0.778,0.303-1.509,0.853-2.059c0.55-0.55,1.282-0.853,2.06-0.853
						h0.432c0.778,0,1.509,0.303,2.059,0.853c0.55,0.55,0.853,1.282,0.853,2.06v4.431h1.639v-4.431c0-1.215-0.473-2.358-1.333-3.218
						c-0.859-0.86-2.002-1.333-3.218-1.333h-0.432c-1.215,0-2.358,0.473-3.218,1.333c-0.859,0.86-1.333,2.003-1.333,3.218v4.431
						H221.169z"/>
					<g>
						<path style="fill:#D6D7D8;" d="M221.169,334.95h-1.639v6.605c0,1.235,1.001,2.237,2.237,2.237h1.383v-1.468h-1.183
							c-0.441,0-0.799-0.358-0.799-0.799V334.95z"/>
						<path style="fill:#D6D7D8;" d="M227.426,334.95v6.575c0,0.441-0.358,0.799-0.799,0.799h-1.183v1.468h1.383
							c1.235,0,2.237-1.001,2.237-2.237v-6.605H227.426z"/>
					</g>
				</g>
				<path style="fill:#EAEAE4;" d="M261.659,272.068v17.233c0,2.138-1.071,4.134-2.853,5.316l-3.96,2.627h6.812h29.158
					c3.142,0,5.688-2.547,5.688-5.688v-19.488c0-3.142-2.547-5.688-5.688-5.688h-23.47
					C264.206,266.379,261.659,268.926,261.659,272.068z"/>
				<g>
					<path style="fill:#31ADA7;" d="M279.57,270.379L279.57,270.379c1.31,0,2.372,1.062,2.372,2.372v6.071
						c0,1.31-1.062,2.372-2.372,2.372l0,0c-1.31,0-2.372-1.062-2.372-2.372v-6.071C277.198,271.441,278.26,270.379,279.57,270.379z"
						/>
					<path style="fill:#2F51AF;" d="M281.942,275.824v-3.073c0-1.31-1.062-2.372-2.372-2.372c-1.31,0-2.372,1.062-2.372,2.372v3.073
						H281.942z"/>
				</g>
				<circle style="fill:#513A32;" cx="276.164" cy="284.82" r="0.655"/>
				<circle style="fill:#513A32;" cx="279.57" cy="284.82" r="0.655"/>
				<circle style="fill:#513A32;" cx="282.976" cy="284.82" r="0.655"/>
			</g>
		</g>
		<g>
			<path style="fill:#678FC1;" d="M238.249,109.922l0.387,36.734h16.251v-36.622c-2.402,1.623-5.208,2.838-8.235,2.838
				C243.554,112.873,240.688,111.601,238.249,109.922z"/>
			<path style="fill:#3D5D7F;" d="M246.652,112.873c-3.098,0-5.965-1.272-8.403-2.951l0.048,3.436
				c2.428,1.663,5.277,2.92,8.355,2.92c3.028,0,5.833-1.216,8.235-2.838v-3.404C252.485,111.657,249.68,112.873,246.652,112.873z"/>
			<path style="fill:#EAEAE4;" d="M293.28,224.231c-0.745-39.275-1.384-104.515-1.384-104.515l-24.243-10.666
				c0,0-9.914,9.217-17.914,11.918v2.769l-1.442,19.343l-2.141-5.591c-1.716-4.481-2.605-9.374-2.605-14.329v-2.196
				c-7.998-2.708-17.902-11.914-17.902-11.914l-20.811,9.039l-3.476,1.627c0,0-0.631,65.241-1.367,104.515H293.28z"/>
			<polygon style="fill:#CECECA;" points="248.298,224.231 248.298,143.079 245.083,134.254 245.958,224.231 			"/>
			<path style="fill:#FFC1A9;" d="M263.687,84.956c0,0-1.187,9.107-0.752,16.858c0,0-7.141,11.059-16.283,11.059
				c-9.141,0-16.283-11.059-16.283-11.059c0.435-7.752-0.752-16.858-0.752-16.858L263.687,84.956z"/>
			<path style="fill:#FFC1A9;" d="M273.952,52.366c0.526-0.37,1.094-0.548,1.673-0.487c2.092,0.222,3.524,3.489,3.199,7.297
				c-0.326,3.808-2.286,6.715-4.379,6.492c-0.578-0.061-1.106-0.356-1.56-0.83L273.952,52.366z"/>
			<path style="fill:#FFC1A9;" d="M219.352,52.366c-0.526-0.37-1.094-0.548-1.673-0.487c-2.092,0.222-3.524,3.489-3.199,7.297
				c0.326,3.808,2.286,6.715,4.379,6.492c0.578-0.061,1.106-0.356,1.56-0.83L219.352,52.366z"/>
			<path style="fill:#FFC1A9;" d="M246.652,96.479L246.652,96.479c-12.098,0-22.801-9.298-24.869-22.256l-2.77-17.364
				c-2.995-18.769,9.713-36.536,27.639-36.536h0c17.926,0,30.634,17.767,27.639,36.536l-2.77,17.364
				C269.453,87.181,258.75,96.479,246.652,96.479z"/>
			<circle style="fill:#513A32;" cx="236.714" cy="54.507" r="1.905"/>
			<path style="fill:#513A32;" d="M241.854,49.414l-4.723-1.153c-0.792-0.193-1.617-0.212-2.417-0.056l-5.069,0.994
				c-0.199,0.039-0.343,0.214-0.343,0.416v1.112c0,0.258,0.229,0.457,0.485,0.42l5.132-0.74c0.67-0.097,1.35-0.101,2.021-0.013
				l4.883,0.64c0.342,0.045,0.646-0.222,0.646-0.567v-0.27C242.469,49.825,242.215,49.502,241.854,49.414z"/>
			<circle style="fill:#513A32;" cx="256.61" cy="54.507" r="1.905"/>
			<path style="fill:#513A32;" d="M251.451,49.414l4.723-1.153c0.792-0.193,1.617-0.212,2.417-0.056l5.069,0.994
				c0.199,0.039,0.343,0.214,0.343,0.416v1.112c0,0.258-0.229,0.457-0.485,0.42l-5.132-0.74c-0.67-0.097-1.35-0.101-2.021-0.013
				l-4.883,0.64c-0.342,0.045-0.646-0.222-0.646-0.567v-0.27C250.836,49.825,251.09,49.502,251.451,49.414z"/>
			<ellipse style="fill:#FCAA90;" cx="236.714" cy="58.949" rx="2.78" ry="1.39"/>
			<ellipse style="fill:#FCAA90;" cx="256.61" cy="58.949" rx="2.78" ry="1.39"/>
			<path style="fill:#ED9077;" d="M246.652,80.129c7.683,0,10.846-7.365,10.846-7.365s-4.745,2.099-10.846,2.099
				c-6.101,0-10.846-2.099-10.846-2.099S238.969,80.129,246.652,80.129z"/>
			<path style="fill:#FFFFFF;" d="M246.652,77.603c7.054,0,9.958-4.838,9.958-4.838s-4.357,1.538-9.958,1.538
				c-5.601,0-9.958-1.538-9.958-1.538S239.599,77.603,246.652,77.603z"/>
			<path style="fill:#513A32;" d="M248.599,68.876c0,0,6.902,0.333,10.791,3.554c0,0-8.571,2.161-12.738,2.161
				c-4.167,0-12.738-2.161-12.738-2.161c3.889-3.221,10.791-3.554,10.791-3.554H248.599z"/>
			<path style="fill:#FF8888;" d="M244.522,53.683v15.463c0,1.176,0.954,2.13,2.13,2.13c1.176,0,2.13-0.954,2.13-2.13V53.683
				H244.522z"/>
			<path style="fill:#513A32;" d="M246.652,20.322L246.652,20.322c-17.926,0-30.634,17.767-27.639,36.536l2.745,17.202v0
				l0.026,0.161c2.068,12.959,12.77,22.256,24.869,22.256h0c12.098,0,22.801-9.298,24.868-22.256l0.026-0.161v0l2.745-17.202
				C277.286,38.09,264.579,20.322,246.652,20.322z M239.439,82.615l-9.3-5.179c-3.742-2.084-6.062-6.031-6.062-10.313v-4.271v-2.409
				v-3.25c0-1.071,0.426-2.099,1.183-2.857l0.671-0.672c0.758-0.758,1.183-1.785,1.183-2.857v-9.079
				c0-0.524,0.046-1.044,0.136-1.553c0.17-0.961,0.495-1.887,0.962-2.739c0.404-0.739,0.915-1.424,1.521-2.03h0
				c0.419-0.419,0.876-0.792,1.362-1.117c1.458-0.972,3.182-1.502,4.961-1.502h10.595h10.595c0.989,0,1.962,0.164,2.881,0.477
				c0.634,0.216,1.242,0.502,1.813,0.854c0.586,0.362,1.134,0.793,1.629,1.288h0c0.548,0.548,1.017,1.16,1.401,1.818
				c0.261,0.448,0.483,0.918,0.662,1.403c0.364,0.984,0.555,2.033,0.555,3.101v1.429v2.095v5.555c0,1.071,0.426,2.099,1.183,2.857
				l0.671,0.672c0.758,0.758,1.183,1.785,1.183,2.857v3.25v3.562v2.933v0.185c0,4.283-2.32,8.23-6.062,10.313l-9.3,5.179
				C249.381,85.112,243.924,85.112,239.439,82.615z"/>
			<path style="fill:#CECECA;" d="M267.6,109.049l3.371,1.445c0,0-8.987,10.701-21.165,12.743l-0.067-2.273L267.6,109.049z"/>
			<path style="fill:#CECECA;" d="M225.691,109.049l-3.371,1.445c0,0,4.104,6.896,13.021,10.116c2.63,0.95,5.496,1.027,8.211,0.355
				l0,0L225.691,109.049z"/>
			<path style="fill:#EAEAE4;" d="M262.88,100.714c0,0,4.721,4.145,4.721,8.335c0,0-5.349,9.192-17.861,11.916v-6.086
				c0-2.112,1.026-4.091,2.758-5.3C255.452,107.515,261.011,103.675,262.88,100.714z"/>
			<path style="fill:#EAEAE4;" d="M230.37,100.714c0,0-4.721,4.145-4.721,8.335c0,0,5.349,9.192,17.861,11.916v-6.086
				c0-2.112-1.026-4.091-2.758-5.3C237.797,107.515,232.238,103.675,230.37,100.714z"/>
			<g>
				<circle style="fill:#FFFFFF;" cx="239.134" cy="115.228" r="2.2"/>
				<g>
					<circle style="fill:#CCCCCC;" cx="239.134" cy="114.314" r="0.497"/>
					<circle style="fill:#CCCCCC;" cx="239.134" cy="116.142" r="0.497"/>
					<circle style="fill:#CCCCCC;" cx="240.048" cy="115.228" r="0.497"/>
					<circle style="fill:#CCCCCC;" cx="238.22" cy="115.228" r="0.497"/>
				</g>
			</g>
			<g>
				<circle style="fill:#FFFFFF;" cx="253.973" cy="115.228" r="2.2"/>
				<g>
					<circle style="fill:#CCCCCC;" cx="253.973" cy="114.314" r="0.497"/>
					<circle style="fill:#CCCCCC;" cx="253.973" cy="116.142" r="0.497"/>
					<circle style="fill:#CCCCCC;" cx="254.887" cy="115.228" r="0.497"/>
					<circle style="fill:#CCCCCC;" cx="253.059" cy="115.228" r="0.497"/>
				</g>
			</g>
			<g>
				<g>
					<path style="fill:#EAEAE4;" d="M201.384,119.715l-8.042,5.225c-3.315,2.154-5.705,5.469-6.702,9.295l-10.241,26.745
						l-41.485-20.585l-9.955,14.734l53.809,37.506c4.131,2.88,9.831,1.723,12.514-2.539l9.476-15.055L201.384,119.715z"/>
					<path style="fill:#FFC1A9;" d="M134.914,140.396l-2.454-1.236c-3.074-1.548-6.526-2.186-9.95-1.84l-26.451,2.677
						c-2.132,0.216-3.639,2.189-3.285,4.303v0c0.24,1.435,1.297,2.597,2.703,2.972l29.481,7.858L134.914,140.396z"/>
					<path style="fill:#FFC1A9;" d="M134.914,140.396l-6.302-11.882c-0.804-1.516-2.703-2.066-4.193-1.214h0
						c-1.051,0.601-1.645,1.768-1.512,2.971l0.96,8.702L134.914,140.396z"/>
					<polygon style="fill:#CECECA;" points="174.287,159.933 170.701,172.987 176.399,160.981 					"/>
				</g>
				<g>
					<path style="fill:#EAEAE4;" d="M291.921,119.715l8.042,5.225c3.315,2.154,5.705,5.469,6.702,9.295l10.241,26.745l41.485-20.585
						l9.955,14.734l-53.809,37.506c-4.132,2.88-9.831,1.723-12.514-2.539l-9.476-15.055L291.921,119.715z"/>
					<path style="fill:#FFC1A9;" d="M358.39,140.396l2.454-1.236c3.074-1.548,6.526-2.186,9.95-1.84l26.451,2.677
						c2.132,0.216,3.639,2.189,3.285,4.303v0c-0.24,1.435-1.297,2.597-2.703,2.972l-29.481,7.858L358.39,140.396z"/>
					<path style="fill:#FFC1A9;" d="M358.39,140.396l6.302-11.882c0.804-1.516,2.703-2.066,4.193-1.214l0,0
						c1.051,0.601,1.645,1.768,1.512,2.971l-0.96,8.702L358.39,140.396z"/>
					<polygon style="fill:#CECECA;" points="319.018,159.933 322.603,172.987 316.906,160.981 					"/>
				</g>
			</g>
			<path style="fill:#CECECA;" d="M200.758,175.042c0,0,0.728-29.287-7.416-50.102c0,0,9.148,13.596,9.323,50.102l-2.235,22.53
				L200.758,175.042z"/>
			<path style="fill:#CECECA;" d="M292.558,175.042c0,0-0.728-29.287,7.416-50.102c0,0-9.148,13.596-9.323,50.102l2.235,22.53
				L292.558,175.042z"/>
			<path style="fill:#197278;" d="M262.498,167.269c-2.338,0-4.239-1.902-4.239-4.24v-10.909c0-2.338,1.902-4.24,4.239-4.24h18.989
				c2.338,0,4.24,1.902,4.24,4.24v10.909c0,2.338-1.903,4.24-4.24,4.24H262.498z"/>
			<path style="fill:#FFFFFF;" d="M281.488,165.173h-18.989c-1.184,0-2.143-0.96-2.143-2.143v-10.909
				c0-1.184,0.96-2.143,2.143-2.143h18.989c1.184,0,2.143,0.96,2.143,2.143v10.909C283.631,164.214,282.672,165.173,281.488,165.173
				z"/>
			<path style="fill:#197278;" d="M271.993,143.652L271.993,143.652c-1.274,0-2.308,1.033-2.308,2.308v4.017h4.615v-4.017
				C274.301,144.685,273.268,143.652,271.993,143.652z"/>
			<circle style="fill:#474444;" cx="266.993" cy="154.583" r="2.234"/>
			<circle style="fill:#474444;" cx="271.993" cy="145.536" r="0.56"/>
			<path style="fill:#474444;" d="M270.76,162.801v-2.334c0-2.08-1.687-3.767-3.767-3.767c-2.081,0-3.767,1.687-3.767,3.767v2.334
				H270.76z"/>
			<rect x="273.842" y="152.349" style="fill:#474444;" width="7.292" height="0.959"/>
			<rect x="273.842" y="154.722" style="fill:#474444;" width="7.292" height="0.959"/>
			<rect x="273.842" y="157.096" style="fill:#474444;" width="7.292" height="0.959"/>
			<rect x="273.842" y="159.469" style="fill:#474444;" width="7.292" height="0.959"/>
			<rect x="273.842" y="161.842" style="fill:#474444;" width="7.292" height="0.959"/>
			<g>
				<path style="fill:#6AC9D1;" d="M140.374,117.428H83.543c-3.842,0-6.956-3.115-6.956-6.956V68.315
					c0-3.842,3.115-6.956,6.956-6.956h56.831c3.842,0,6.956,3.115,6.956,6.956v42.156
					C147.331,114.313,144.216,117.428,140.374,117.428z"/>
				<rect x="76.587" y="75.377" style="fill:#E2F2F2;" width="70.744" height="28.033"/>
				<path style="fill:#2095A8;" d="M119.57,86.877h-5.095v-5.095c0-1.164-0.944-2.108-2.108-2.108h-0.815
					c-1.164,0-2.108,0.944-2.108,2.108v5.095h-5.095c-1.164,0-2.108,0.944-2.108,2.108v0.815c0,1.164,0.944,2.108,2.108,2.108h5.095
					v5.095c0,1.164,0.944,2.108,2.108,2.108h0.815c1.164,0,2.108-0.944,2.108-2.108v-5.095h5.095c1.164,0,2.108-0.944,2.108-2.108
					v-0.815C121.678,87.821,120.734,86.877,119.57,86.877z"/>
				<g>
					<g>
						<path style="fill:#292B30;" d="M123.579,65.763h-4.79V54.264c0-3.767-3.064-6.831-6.831-6.831
							c-3.767,0-6.831,3.064-6.831,6.831v11.499h-4.79V54.264c0-6.408,5.213-11.621,11.621-11.621
							c6.408,0,11.621,5.213,11.621,11.621V65.763z"/>
					</g>
					<g>
						<g>
							<circle style="fill:#2095A8;" cx="102.698" cy="67.565" r="4.12"/>
							<circle style="fill:#2095A8;" cx="121.219" cy="67.565" r="4.12"/>
						</g>
					</g>
				</g>
			</g>
			<path style="fill:#6AC9D1;" d="M418.124,48.957L418.124,48.957c-7.629-8.21-20.548-8.446-28.473-0.522l-4.665,4.665l-4.665-4.665
				c-7.925-7.925-20.844-7.688-28.473,0.522v0c-5.27,5.671-6.614,13.71-3.936,20.612h28.952c0.571,0,1.096,0.309,1.373,0.808
				l2.522,4.534l3.768-11.355c0.221-0.666,0.874-1.104,1.56-1.075c0.702,0.03,1.299,0.522,1.461,1.206l3.83,16.046l3.125-9.103
				c0.218-0.635,0.816-1.061,1.487-1.061h7.991c0.868,0,1.572,0.704,1.572,1.572s-0.704,1.572-1.572,1.572h-6.868l-4.52,13.164
				c-0.219,0.637-0.818,1.061-1.486,1.061c-0.026,0-0.051-0.001-0.077-0.002c-0.699-0.033-1.291-0.525-1.453-1.205l-3.805-15.944
				l-3.156,9.511c-0.197,0.592-0.725,1.012-1.346,1.07c-0.628,0.064-1.218-0.257-1.52-0.801l-3.81-6.854h-26.471
				c0.43,0.705,0.891,1.396,1.419,2.056l34.098,42.658l34.098-42.658C425.203,67.116,424.794,56.135,418.124,48.957z"/>
		</g>
	</g>
</g>
<g id="DESIGNED_BY_FREEPIK">
	<g>
		<g>
			<g>
				<g>
					<path style="fill:#BABABA;" d="M179.765,483.93v-0.161c-0.218,0.249-0.432,0.452-0.644,0.608
						c-0.212,0.157-0.441,0.276-0.689,0.356c-0.247,0.082-0.517,0.122-0.81,0.122c-0.388,0-0.747-0.082-1.078-0.246
						c-0.33-0.164-0.616-0.399-0.857-0.704c-0.242-0.305-0.425-0.662-0.549-1.074c-0.124-0.412-0.187-0.857-0.187-1.335
						c0-1.013,0.247-1.804,0.742-2.369c0.495-0.565,1.146-0.848,1.953-0.848c0.467,0,0.861,0.081,1.181,0.24
						c0.321,0.16,0.633,0.408,0.938,0.739v-2.392c0-0.333,0.066-0.583,0.199-0.754c0.132-0.17,0.321-0.255,0.567-0.255
						c0.245,0,0.434,0.078,0.567,0.234c0.133,0.157,0.199,0.386,0.199,0.691v7.147c0,0.309-0.071,0.54-0.214,0.695
						c-0.143,0.154-0.326,0.231-0.552,0.231c-0.221,0-0.405-0.08-0.549-0.24C179.837,484.455,179.765,484.226,179.765,483.93z
						 M176.577,481.549c0,0.439,0.068,0.813,0.205,1.122c0.137,0.309,0.324,0.541,0.561,0.697c0.238,0.157,0.497,0.236,0.778,0.236
						c0.285,0,0.545-0.074,0.781-0.223c0.235-0.148,0.423-0.376,0.564-0.682c0.141-0.307,0.211-0.691,0.211-1.149
						c0-0.432-0.07-0.803-0.211-1.114c-0.14-0.31-0.33-0.547-0.57-0.712c-0.24-0.164-0.502-0.245-0.786-0.245
						c-0.297,0-0.562,0.084-0.796,0.252c-0.233,0.168-0.414,0.409-0.543,0.724C176.641,480.769,176.577,481.134,176.577,481.549z"/>
				</g>
				<g>
					<path style="fill:#BABABA;" d="M186.911,481.959h-3.169c0.004,0.367,0.078,0.692,0.223,0.973
						c0.144,0.281,0.336,0.493,0.576,0.635c0.24,0.143,0.504,0.213,0.793,0.213c0.194,0,0.371-0.022,0.531-0.067
						c0.16-0.046,0.315-0.117,0.466-0.214c0.15-0.096,0.289-0.201,0.415-0.312c0.126-0.111,0.29-0.262,0.493-0.452
						c0.083-0.071,0.202-0.107,0.357-0.107c0.166,0,0.3,0.046,0.403,0.137c0.103,0.092,0.155,0.219,0.155,0.386
						c0,0.147-0.058,0.317-0.172,0.513c-0.116,0.196-0.289,0.384-0.52,0.564c-0.232,0.18-0.522,0.329-0.873,0.448
						c-0.35,0.119-0.753,0.178-1.208,0.178c-1.04,0-1.85-0.297-2.428-0.891c-0.578-0.593-0.867-1.399-0.867-2.416
						c0-0.479,0.071-0.923,0.213-1.332c0.143-0.41,0.351-0.761,0.623-1.054c0.273-0.293,0.61-0.517,1.01-0.674
						c0.399-0.156,0.843-0.234,1.33-0.234c0.633,0,1.176,0.133,1.629,0.4c0.454,0.267,0.793,0.612,1.019,1.035
						c0.225,0.424,0.338,0.856,0.338,1.294c0,0.408-0.117,0.672-0.35,0.793C187.664,481.898,187.335,481.959,186.911,481.959z
						 M183.741,481.039h2.939c-0.039-0.554-0.189-0.969-0.448-1.244c-0.259-0.275-0.6-0.413-1.024-0.413
						c-0.404,0-0.735,0.139-0.994,0.418C183.954,480.08,183.797,480.493,183.741,481.039z"/>
				</g>
				<g>
					<path style="fill:#BABABA;" d="M194.295,482.736c0,0.447-0.108,0.831-0.327,1.149c-0.217,0.319-0.539,0.56-0.965,0.724
						c-0.425,0.164-0.943,0.246-1.552,0.246c-0.582,0-1.08-0.089-1.496-0.267c-0.415-0.178-0.722-0.401-0.92-0.667
						c-0.198-0.268-0.297-0.535-0.297-0.805c0-0.178,0.063-0.33,0.19-0.457c0.126-0.126,0.287-0.19,0.481-0.19
						c0.17,0,0.3,0.042,0.391,0.125c0.091,0.083,0.179,0.2,0.261,0.35c0.166,0.29,0.366,0.504,0.597,0.648
						c0.231,0.142,0.547,0.214,0.947,0.214c0.324,0,0.591-0.073,0.798-0.217c0.207-0.145,0.311-0.31,0.311-0.496
						c0-0.285-0.107-0.492-0.324-0.622c-0.216-0.131-0.571-0.256-1.066-0.375c-0.558-0.138-1.012-0.284-1.362-0.436
						c-0.35-0.151-0.63-0.353-0.84-0.602c-0.21-0.25-0.315-0.557-0.315-0.92c0-0.324,0.097-0.631,0.291-0.92
						c0.194-0.288,0.48-0.519,0.859-0.691c0.377-0.173,0.833-0.259,1.368-0.259c0.42,0,0.797,0.043,1.131,0.131
						c0.335,0.086,0.614,0.204,0.837,0.35c0.224,0.146,0.394,0.308,0.51,0.486c0.117,0.178,0.175,0.352,0.175,0.523
						c0,0.185-0.062,0.338-0.187,0.457c-0.124,0.118-0.301,0.178-0.531,0.178c-0.166,0-0.308-0.048-0.424-0.143
						c-0.117-0.094-0.25-0.237-0.401-0.427c-0.123-0.158-0.266-0.285-0.433-0.38c-0.166-0.095-0.392-0.142-0.677-0.142
						c-0.293,0-0.536,0.062-0.73,0.187c-0.194,0.124-0.291,0.279-0.291,0.465c0,0.171,0.071,0.31,0.213,0.419
						c0.143,0.109,0.335,0.2,0.577,0.27c0.241,0.071,0.573,0.158,0.997,0.261c0.502,0.123,0.912,0.27,1.231,0.439
						c0.318,0.17,0.56,0.371,0.725,0.603C194.213,482.176,194.295,482.439,194.295,482.736z"/>
				</g>
				<g>
					<path style="fill:#BABABA;" d="M195.951,477.513c-0.225,0-0.418-0.07-0.579-0.208c-0.16-0.138-0.24-0.334-0.24-0.588
						c0-0.23,0.082-0.418,0.246-0.567c0.164-0.149,0.356-0.223,0.573-0.223c0.21,0,0.396,0.067,0.558,0.202
						c0.162,0.135,0.244,0.33,0.244,0.588c0,0.25-0.08,0.444-0.238,0.585C196.356,477.442,196.168,477.513,195.951,477.513z
						 M196.753,479.187v4.683c0,0.325-0.077,0.571-0.232,0.737c-0.155,0.166-0.35,0.249-0.588,0.249
						c-0.238,0-0.431-0.085-0.579-0.255c-0.149-0.17-0.222-0.414-0.222-0.73v-4.636c0-0.32,0.074-0.562,0.222-0.724
						c0.148-0.162,0.341-0.243,0.579-0.243c0.238,0,0.433,0.081,0.588,0.243C196.675,478.672,196.753,478.898,196.753,479.187z"/>
				</g>
				<g>
					<path style="fill:#BABABA;" d="M203.852,479.454v4.707c0,0.538-0.058,1.002-0.173,1.39c-0.114,0.387-0.298,0.708-0.552,0.961
						c-0.253,0.253-0.585,0.441-0.994,0.563c-0.41,0.123-0.919,0.184-1.529,0.184c-0.558,0-1.057-0.078-1.496-0.234
						c-0.439-0.157-0.777-0.358-1.015-0.605c-0.237-0.247-0.356-0.502-0.356-0.763c0-0.198,0.067-0.359,0.202-0.483
						c0.134-0.125,0.297-0.187,0.486-0.187c0.237,0,0.445,0.105,0.623,0.314c0.087,0.107,0.177,0.215,0.27,0.324
						c0.093,0.109,0.196,0.202,0.309,0.28c0.113,0.076,0.248,0.134,0.406,0.172c0.158,0.037,0.341,0.056,0.546,0.056
						c0.42,0,0.745-0.058,0.977-0.175c0.232-0.117,0.394-0.28,0.487-0.49c0.093-0.209,0.147-0.433,0.163-0.673
						c0.016-0.24,0.027-0.624,0.035-1.155c-0.25,0.349-0.537,0.615-0.864,0.796c-0.326,0.182-0.715,0.273-1.166,0.273
						c-0.542,0-1.016-0.139-1.422-0.416c-0.405-0.277-0.717-0.665-0.934-1.163c-0.218-0.499-0.326-1.074-0.326-1.727
						c0-0.487,0.066-0.927,0.198-1.318c0.133-0.392,0.322-0.723,0.567-0.992c0.245-0.269,0.528-0.472,0.849-0.608
						c0.32-0.136,0.673-0.204,1.057-0.204c0.459,0,0.857,0.089,1.193,0.264c0.336,0.177,0.649,0.453,0.938,0.829v-0.22
						c0-0.281,0.069-0.498,0.207-0.653c0.139-0.154,0.317-0.231,0.535-0.231c0.313,0,0.52,0.103,0.623,0.306
						C203.8,478.776,203.852,479.07,203.852,479.454z M199.156,481.508c0,0.657,0.143,1.154,0.43,1.49
						c0.287,0.337,0.658,0.505,1.113,0.505c0.269,0,0.523-0.073,0.762-0.217c0.24-0.145,0.435-0.363,0.585-0.653
						c0.15-0.291,0.226-0.644,0.226-1.06c0-0.66-0.145-1.175-0.437-1.543c-0.291-0.368-0.674-0.552-1.149-0.552
						c-0.463,0-0.834,0.176-1.113,0.529C199.295,480.358,199.156,480.859,199.156,481.508z"/>
				</g>
				<g>
					<path style="fill:#BABABA;" d="M206.427,479.163v0.196c0.284-0.376,0.596-0.652,0.935-0.828
						c0.339-0.176,0.727-0.264,1.166-0.264c0.428,0,0.809,0.093,1.146,0.279c0.336,0.186,0.588,0.449,0.753,0.789
						c0.107,0.198,0.176,0.413,0.208,0.642c0.032,0.23,0.048,0.522,0.048,0.879v3.015c0,0.325-0.074,0.571-0.223,0.737
						c-0.148,0.166-0.341,0.249-0.579,0.249c-0.242,0-0.437-0.085-0.588-0.255c-0.151-0.17-0.225-0.414-0.225-0.73v-2.701
						c0-0.534-0.075-0.943-0.223-1.226c-0.149-0.283-0.444-0.425-0.888-0.425c-0.288,0-0.552,0.086-0.789,0.258
						c-0.238,0.173-0.412,0.41-0.523,0.71c-0.079,0.242-0.119,0.692-0.119,1.353v2.03c0,0.328-0.077,0.576-0.228,0.74
						c-0.152,0.164-0.349,0.246-0.59,0.246c-0.234,0-0.425-0.085-0.576-0.255c-0.15-0.17-0.225-0.414-0.225-0.73v-4.683
						c0-0.309,0.067-0.54,0.202-0.692c0.135-0.152,0.319-0.228,0.552-0.228c0.143,0,0.272,0.034,0.387,0.101
						c0.114,0.068,0.207,0.168,0.276,0.302C206.393,478.805,206.427,478.969,206.427,479.163z"/>
				</g>
				<g>
					<path style="fill:#BABABA;" d="M216.286,481.959h-3.17c0.004,0.367,0.078,0.692,0.223,0.973
						c0.144,0.281,0.336,0.493,0.576,0.635c0.239,0.143,0.503,0.213,0.792,0.213c0.194,0,0.371-0.022,0.532-0.067
						c0.16-0.046,0.315-0.117,0.466-0.214c0.15-0.096,0.288-0.201,0.416-0.312c0.126-0.111,0.29-0.262,0.492-0.452
						c0.083-0.071,0.202-0.107,0.356-0.107c0.166,0,0.301,0.046,0.404,0.137c0.103,0.092,0.154,0.219,0.154,0.386
						c0,0.147-0.057,0.317-0.172,0.513c-0.115,0.196-0.288,0.384-0.52,0.564c-0.232,0.18-0.522,0.329-0.872,0.448
						c-0.35,0.119-0.753,0.178-1.208,0.178c-1.041,0-1.85-0.297-2.428-0.891c-0.577-0.593-0.866-1.399-0.866-2.416
						c0-0.479,0.071-0.923,0.214-1.332c0.143-0.41,0.351-0.761,0.624-1.054c0.273-0.293,0.609-0.517,1.009-0.674
						c0.399-0.156,0.843-0.234,1.33-0.234c0.633,0,1.175,0.133,1.629,0.4c0.454,0.267,0.793,0.612,1.019,1.035
						c0.225,0.424,0.339,0.856,0.339,1.294c0,0.408-0.117,0.672-0.35,0.793C217.039,481.898,216.71,481.959,216.286,481.959z
						 M213.117,481.039h2.938c-0.039-0.554-0.189-0.969-0.448-1.244c-0.259-0.275-0.601-0.413-1.024-0.413
						c-0.404,0-0.736,0.139-0.995,0.418C213.329,480.08,213.172,480.493,213.117,481.039z"/>
				</g>
				<g>
					<path style="fill:#BABABA;" d="M222.892,483.93v-0.161c-0.218,0.249-0.432,0.452-0.644,0.608
						c-0.212,0.157-0.441,0.276-0.689,0.356c-0.247,0.082-0.517,0.122-0.81,0.122c-0.389,0-0.747-0.082-1.078-0.246
						c-0.331-0.164-0.616-0.399-0.858-0.704c-0.242-0.305-0.424-0.662-0.549-1.074c-0.125-0.412-0.187-0.857-0.187-1.335
						c0-1.013,0.247-1.804,0.742-2.369c0.495-0.565,1.146-0.848,1.953-0.848c0.467,0,0.861,0.081,1.181,0.24
						c0.32,0.16,0.633,0.408,0.938,0.739v-2.392c0-0.333,0.066-0.583,0.199-0.754c0.132-0.17,0.322-0.255,0.567-0.255
						c0.245,0,0.434,0.078,0.567,0.234c0.132,0.157,0.199,0.386,0.199,0.691v7.147c0,0.309-0.071,0.54-0.214,0.695
						c-0.143,0.154-0.326,0.231-0.552,0.231c-0.222,0-0.405-0.08-0.549-0.24C222.965,484.455,222.892,484.226,222.892,483.93z
						 M219.705,481.549c0,0.439,0.068,0.813,0.204,1.122c0.136,0.309,0.324,0.541,0.562,0.697c0.237,0.157,0.496,0.236,0.777,0.236
						c0.285,0,0.546-0.074,0.781-0.223c0.236-0.148,0.424-0.376,0.564-0.682c0.141-0.307,0.211-0.691,0.211-1.149
						c0-0.432-0.07-0.803-0.211-1.114c-0.14-0.31-0.33-0.547-0.57-0.712c-0.24-0.164-0.502-0.245-0.787-0.245
						c-0.296,0-0.562,0.084-0.795,0.252c-0.233,0.168-0.414,0.409-0.543,0.724C219.769,480.769,219.705,481.134,219.705,481.549z"/>
				</g>
				<g>
					<path style="fill:#BABABA;" d="M229.516,476.782v2.475c0.305-0.316,0.615-0.559,0.932-0.727
						c0.316-0.168,0.709-0.252,1.176-0.252c0.538,0,1.01,0.128,1.416,0.382c0.405,0.256,0.72,0.626,0.944,1.111
						c0.223,0.484,0.336,1.06,0.336,1.725c0,0.491-0.063,0.94-0.187,1.35c-0.125,0.409-0.306,0.765-0.543,1.065
						c-0.238,0.301-0.525,0.534-0.864,0.698c-0.339,0.164-0.712,0.246-1.119,0.246c-0.25,0-0.484-0.029-0.704-0.089
						c-0.22-0.059-0.407-0.137-0.561-0.234c-0.154-0.096-0.286-0.197-0.395-0.3c-0.109-0.102-0.253-0.258-0.431-0.463v0.161
						c0,0.305-0.073,0.535-0.22,0.692c-0.146,0.156-0.332,0.234-0.558,0.234c-0.23,0-0.413-0.077-0.549-0.234
						c-0.137-0.157-0.205-0.388-0.205-0.692v-7.076c0-0.328,0.066-0.577,0.198-0.745c0.133-0.168,0.318-0.252,0.555-0.252
						c0.25,0,0.441,0.08,0.576,0.24C229.449,476.258,229.516,476.485,229.516,476.782z M229.593,481.597
						c0,0.645,0.147,1.14,0.442,1.486c0.295,0.347,0.682,0.521,1.161,0.521c0.407,0,0.759-0.177,1.053-0.532
						c0.295-0.355,0.442-0.862,0.442-1.523c0-0.427-0.061-0.796-0.184-1.104c-0.123-0.309-0.297-0.547-0.522-0.715
						c-0.226-0.168-0.489-0.252-0.79-0.252c-0.309,0-0.584,0.084-0.825,0.252c-0.241,0.168-0.431,0.411-0.57,0.73
						C229.663,480.778,229.593,481.157,229.593,481.597z"/>
				</g>
				<g>
					<path style="fill:#BABABA;" d="M236.42,485.058l0.148-0.362l-1.995-5.022c-0.122-0.288-0.184-0.499-0.184-0.629
						c0-0.139,0.036-0.267,0.107-0.385c0.071-0.119,0.169-0.214,0.293-0.285c0.125-0.072,0.255-0.107,0.389-0.107
						c0.233,0,0.409,0.074,0.529,0.223c0.119,0.148,0.223,0.361,0.314,0.638l1.371,3.989l1.3-3.71
						c0.103-0.3,0.196-0.536,0.279-0.706c0.083-0.17,0.171-0.285,0.264-0.344c0.093-0.06,0.225-0.09,0.395-0.09
						c0.123,0,0.24,0.032,0.353,0.098c0.113,0.065,0.2,0.153,0.261,0.264c0.061,0.111,0.092,0.227,0.092,0.35
						c-0.016,0.075-0.042,0.182-0.077,0.321c-0.036,0.138-0.079,0.28-0.13,0.421l-2.113,5.533c-0.182,0.486-0.361,0.868-0.535,1.145
						c-0.174,0.277-0.404,0.491-0.691,0.638c-0.287,0.149-0.674,0.223-1.161,0.223c-0.475,0-0.831-0.051-1.068-0.154
						c-0.238-0.104-0.357-0.292-0.357-0.564c0-0.186,0.056-0.33,0.169-0.43c0.112-0.101,0.28-0.152,0.501-0.152
						c0.087,0,0.173,0.012,0.256,0.037c0.103,0.023,0.192,0.035,0.267,0.035c0.186,0,0.333-0.027,0.44-0.084
						c0.106-0.055,0.202-0.151,0.288-0.288C236.211,485.524,236.309,485.323,236.42,485.058z"/>
				</g>
			</g>
			<g>
				<g>
					<path style="fill:#BABABA;" d="M259.897,478.407h0.386v-0.486c0-0.509,0.062-0.911,0.192-1.211
						c0.128-0.299,0.347-0.516,0.654-0.653c0.306-0.135,0.727-0.204,1.26-0.204c0.95,0,1.42,0.229,1.42,0.697
						c0,0.149-0.049,0.278-0.15,0.384c-0.096,0.106-0.214,0.16-0.349,0.16c-0.062,0-0.174-0.012-0.329-0.037
						c-0.148-0.021-0.283-0.035-0.389-0.035c-0.292,0-0.479,0.088-0.566,0.259c-0.079,0.172-0.122,0.418-0.122,0.74v0.386h0.396
						c0.62,0,0.926,0.186,0.926,0.56c0,0.262-0.079,0.431-0.245,0.503c-0.164,0.071-0.39,0.107-0.681,0.107h-0.396v4.294
						c0,0.319-0.075,0.563-0.231,0.73c-0.151,0.17-0.346,0.254-0.589,0.254c-0.229,0-0.419-0.084-0.574-0.254
						c-0.153-0.167-0.228-0.411-0.228-0.73v-4.294h-0.446c-0.243,0-0.427-0.052-0.558-0.164c-0.131-0.107-0.197-0.25-0.197-0.424
						C259.082,478.599,259.353,478.407,259.897,478.407"/>
				</g>
				<g>
					<path style="fill:#BABABA;" d="M265.202,482.516v1.355c0,0.327-0.083,0.574-0.234,0.737c-0.154,0.166-0.349,0.247-0.586,0.247
						c-0.239,0-0.43-0.082-0.579-0.25c-0.148-0.165-0.225-0.41-0.225-0.734v-4.514c0-0.729,0.262-1.093,0.788-1.093
						c0.271,0,0.464,0.084,0.583,0.255c0.118,0.171,0.184,0.421,0.198,0.755c0.192-0.334,0.39-0.584,0.593-0.755
						c0.208-0.171,0.477-0.255,0.819-0.255c0.343,0,0.67,0.084,0.991,0.255c0.322,0.171,0.482,0.398,0.482,0.678
						c0,0.197-0.069,0.362-0.204,0.488c-0.137,0.131-0.284,0.195-0.441,0.195c-0.062,0-0.207-0.039-0.433-0.112
						c-0.228-0.071-0.43-0.108-0.602-0.108c-0.237,0-0.433,0.064-0.582,0.186c-0.151,0.128-0.269,0.311-0.353,0.554
						c-0.081,0.247-0.137,0.541-0.17,0.878C265.216,481.616,265.202,482.029,265.202,482.516"/>
				</g>
				<g>
					<path style="fill:#BABABA;" d="M272.653,481.958h-3.171c0.005,0.367,0.077,0.694,0.222,0.974
						c0.147,0.279,0.337,0.491,0.578,0.635c0.24,0.142,0.502,0.212,0.793,0.212c0.194,0,0.37-0.021,0.531-0.07
						c0.159-0.043,0.316-0.116,0.466-0.213c0.151-0.095,0.287-0.199,0.415-0.313c0.126-0.109,0.292-0.26,0.494-0.449
						c0.084-0.071,0.203-0.109,0.355-0.109c0.168,0,0.301,0.046,0.406,0.139c0.104,0.092,0.152,0.219,0.152,0.386
						c0,0.147-0.055,0.317-0.167,0.512c-0.117,0.198-0.289,0.385-0.523,0.566c-0.234,0.178-0.524,0.329-0.873,0.446
						c-0.35,0.119-0.754,0.179-1.207,0.179c-1.044,0-1.852-0.296-2.429-0.889c-0.577-0.595-0.87-1.401-0.87-2.418
						c0-0.479,0.073-0.924,0.217-1.334c0.14-0.411,0.349-0.76,0.624-1.055c0.272-0.294,0.606-0.518,1.008-0.674
						c0.399-0.156,0.842-0.234,1.33-0.234c0.632,0,1.176,0.134,1.629,0.403c0.452,0.264,0.796,0.61,1.018,1.034
						c0.226,0.426,0.339,0.855,0.339,1.296c0,0.405-0.118,0.669-0.351,0.791C273.404,481.897,273.077,481.958,272.653,481.958
						 M269.482,481.036h2.938c-0.039-0.553-0.186-0.969-0.446-1.241c-0.261-0.276-0.599-0.413-1.025-0.413
						c-0.403,0-0.736,0.137-0.995,0.418C269.695,480.079,269.536,480.49,269.482,481.036"/>
				</g>
				<g>
					<path style="fill:#BABABA;" d="M279.395,481.958h-3.171c0.004,0.367,0.078,0.694,0.222,0.974
						c0.145,0.279,0.337,0.491,0.576,0.635c0.239,0.142,0.503,0.212,0.795,0.212c0.192,0,0.371-0.021,0.528-0.07
						c0.162-0.043,0.316-0.116,0.469-0.213c0.151-0.095,0.287-0.199,0.415-0.313c0.125-0.109,0.29-0.26,0.493-0.449
						c0.084-0.071,0.204-0.109,0.355-0.109c0.168,0,0.302,0.046,0.406,0.139c0.103,0.092,0.15,0.219,0.15,0.386
						c0,0.147-0.054,0.317-0.171,0.512c-0.111,0.198-0.285,0.385-0.519,0.566c-0.231,0.178-0.525,0.329-0.872,0.446
						c-0.348,0.119-0.755,0.179-1.209,0.179c-1.042,0-1.849-0.296-2.429-0.889c-0.577-0.595-0.868-1.401-0.868-2.418
						c0-0.479,0.073-0.924,0.217-1.334c0.142-0.411,0.349-0.76,0.623-1.055c0.272-0.294,0.608-0.518,1.009-0.674
						c0.398-0.156,0.844-0.234,1.331-0.234c0.63,0,1.174,0.134,1.633,0.403c0.45,0.264,0.791,0.61,1.013,1.034
						c0.225,0.426,0.341,0.855,0.341,1.296c0,0.405-0.12,0.669-0.351,0.791C280.145,481.897,279.817,481.958,279.395,481.958
						 M276.224,481.036h2.938c-0.04-0.553-0.19-0.969-0.447-1.241c-0.263-0.276-0.601-0.413-1.027-0.413
						c-0.403,0-0.735,0.137-0.996,0.418C276.435,480.079,276.277,480.49,276.224,481.036"/>
				</g>
				<g>
					<path style="fill:#BABABA;" d="M282.945,479.175v0.194c0.304-0.375,0.621-0.651,0.953-0.828
						c0.324-0.178,0.699-0.267,1.114-0.267c0.497,0,0.96,0.13,1.379,0.386c0.419,0.259,0.749,0.635,0.993,1.129
						c0.244,0.497,0.366,1.081,0.366,1.758c0,0.497-0.07,0.957-0.21,1.376c-0.14,0.418-0.336,0.767-0.581,1.05
						c-0.246,0.281-0.535,0.501-0.868,0.654c-0.339,0.151-0.695,0.227-1.08,0.227c-0.461,0-0.853-0.093-1.166-0.28
						c-0.314-0.182-0.614-0.458-0.901-0.816v2.433c0,0.71-0.26,1.069-0.778,1.069c-0.306,0-0.505-0.092-0.607-0.275
						c-0.095-0.187-0.146-0.452-0.146-0.807v-6.996c0-0.309,0.066-0.537,0.2-0.692c0.134-0.15,0.32-0.228,0.553-0.228
						c0.231,0,0.416,0.078,0.56,0.234C282.874,478.656,282.945,478.878,282.945,479.175 M286.122,481.53
						c0-0.428-0.067-0.796-0.197-1.102c-0.131-0.308-0.312-0.542-0.541-0.705c-0.23-0.164-0.489-0.248-0.77-0.248
						c-0.446,0-0.824,0.178-1.13,0.527c-0.308,0.354-0.462,0.872-0.462,1.558c0,0.641,0.153,1.146,0.46,1.504
						c0.305,0.358,0.679,0.536,1.133,0.536c0.268,0,0.519-0.079,0.748-0.233c0.232-0.158,0.416-0.392,0.552-0.704
						C286.053,482.351,286.122,481.972,286.122,481.53"/>
				</g>
				<g>
					<path style="fill:#BABABA;" d="M289.382,477.509c-0.226,0-0.418-0.071-0.577-0.209c-0.162-0.139-0.242-0.333-0.242-0.585
						c0-0.23,0.082-0.419,0.248-0.569c0.164-0.147,0.354-0.222,0.571-0.222c0.212,0,0.397,0.066,0.559,0.2
						c0.162,0.137,0.244,0.334,0.244,0.591c0,0.25-0.079,0.444-0.236,0.585C289.79,477.437,289.602,477.509,289.382,477.509
						 M290.185,479.183v4.689c0,0.322-0.077,0.568-0.231,0.732c-0.156,0.169-0.35,0.25-0.588,0.25c-0.238,0-0.428-0.084-0.58-0.254
						c-0.146-0.173-0.222-0.416-0.222-0.729v-4.642c0-0.319,0.076-0.559,0.222-0.721c0.152-0.165,0.342-0.245,0.58-0.245
						c0.238,0,0.432,0.079,0.588,0.245C290.107,478.67,290.185,478.897,290.185,479.183"/>
				</g>
				<g>
					<path style="fill:#BABABA;" d="M295.409,484.115l-1.428-2.353l-0.88,0.83v1.291c0,0.312-0.083,0.551-0.248,0.718
						c-0.16,0.17-0.354,0.254-0.566,0.254c-0.249,0-0.447-0.082-0.588-0.25c-0.142-0.165-0.215-0.41-0.215-0.734v-6.915
						c0-0.358,0.071-0.632,0.207-0.821c0.139-0.19,0.341-0.283,0.596-0.283c0.25,0,0.445,0.086,0.593,0.257
						c0.146,0.169,0.221,0.421,0.221,0.751v3.933l1.823-1.914c0.227-0.235,0.395-0.4,0.517-0.486c0.118-0.087,0.262-0.13,0.431-0.13
						c0.204,0,0.371,0.065,0.51,0.193c0.132,0.129,0.2,0.291,0.2,0.483c0,0.237-0.221,0.556-0.659,0.951l-0.861,0.789l1.662,2.614
						c0.121,0.196,0.212,0.34,0.265,0.441c0.052,0.1,0.081,0.2,0.081,0.289c0,0.258-0.071,0.459-0.213,0.61
						c-0.14,0.148-0.327,0.221-0.554,0.221c-0.198,0-0.352-0.051-0.458-0.16C295.739,484.586,295.591,484.392,295.409,484.115"/>
				</g>
				<g>
					<path style="fill:#BABABA;" d="M298.932,484.854c-0.245,0-0.455-0.079-0.634-0.238c-0.178-0.156-0.268-0.378-0.268-0.665
						c0-0.241,0.086-0.449,0.256-0.622c0.172-0.175,0.38-0.262,0.63-0.262c0.248,0,0.46,0.087,0.639,0.258
						c0.175,0.172,0.264,0.383,0.264,0.626c0,0.283-0.089,0.505-0.264,0.662C299.376,484.776,299.168,484.854,298.932,484.854"/>
				</g>
				<g>
					<path style="fill:#BABABA;" d="M306.993,482.848c0,0.2-0.06,0.417-0.182,0.646c-0.12,0.231-0.305,0.449-0.553,0.656
						c-0.247,0.207-0.557,0.377-0.934,0.502c-0.375,0.126-0.8,0.192-1.269,0.192c-1.004,0-1.786-0.294-2.349-0.876
						c-0.56-0.585-0.841-1.368-0.841-2.35c0-0.667,0.128-1.254,0.387-1.765c0.255-0.509,0.628-0.905,1.113-1.184
						c0.487-0.28,1.072-0.419,1.746-0.419c0.421,0,0.805,0.061,1.158,0.184c0.35,0.122,0.645,0.282,0.891,0.474
						c0.242,0.197,0.428,0.402,0.556,0.62c0.129,0.22,0.192,0.425,0.192,0.617c0,0.192-0.071,0.357-0.214,0.492
						c-0.147,0.134-0.322,0.203-0.524,0.203c-0.137,0-0.248-0.035-0.338-0.104c-0.09-0.07-0.19-0.181-0.299-0.339
						c-0.198-0.299-0.404-0.526-0.623-0.674c-0.214-0.152-0.488-0.226-0.821-0.226c-0.476,0-0.865,0.186-1.159,0.561
						c-0.292,0.372-0.439,0.888-0.439,1.534c0,0.305,0.039,0.587,0.114,0.842c0.073,0.255,0.182,0.472,0.325,0.653
						c0.144,0.179,0.315,0.316,0.516,0.409c0.203,0.096,0.426,0.141,0.665,0.141c0.326,0,0.604-0.075,0.836-0.225
						c0.235-0.151,0.439-0.38,0.616-0.689c0.099-0.182,0.204-0.324,0.318-0.427c0.114-0.102,0.256-0.156,0.422-0.156
						c0.198,0,0.363,0.077,0.491,0.227C306.927,482.517,306.993,482.679,306.993,482.848"/>
				</g>
				<g>
					<path style="fill:#BABABA;" d="M313.987,481.56c0,0.481-0.076,0.928-0.222,1.337c-0.155,0.408-0.37,0.758-0.656,1.049
						c-0.284,0.293-0.626,0.518-1.02,0.675c-0.4,0.154-0.844,0.234-1.337,0.234c-0.491,0-0.933-0.08-1.326-0.239
						c-0.389-0.156-0.732-0.384-1.016-0.676c-0.288-0.298-0.505-0.646-0.657-1.048c-0.143-0.402-0.219-0.847-0.219-1.332
						c0-0.491,0.077-0.941,0.224-1.349c0.151-0.409,0.368-0.758,0.649-1.046c0.282-0.289,0.621-0.511,1.019-0.669
						c0.402-0.156,0.844-0.234,1.326-0.234c0.49,0,0.936,0.078,1.337,0.239c0.398,0.157,0.739,0.384,1.027,0.674
						c0.286,0.297,0.502,0.643,0.65,1.045C313.912,480.628,313.987,481.071,313.987,481.56 M312.36,481.56
						c0-0.662-0.146-1.176-0.436-1.543c-0.289-0.372-0.681-0.555-1.171-0.555c-0.317,0-0.597,0.082-0.839,0.246
						c-0.242,0.164-0.425,0.406-0.556,0.728c-0.131,0.321-0.197,0.696-0.197,1.124c0,0.424,0.064,0.792,0.194,1.108
						c0.13,0.319,0.314,0.561,0.554,0.729c0.241,0.167,0.522,0.253,0.845,0.253c0.49,0,0.882-0.185,1.171-0.557
						C312.214,482.724,312.36,482.211,312.36,481.56"/>
				</g>
				<g>
					<path style="fill:#BABABA;" d="M320.169,481.679v2.154c0,0.342-0.075,0.595-0.231,0.767c-0.156,0.17-0.357,0.255-0.611,0.255
						c-0.245,0-0.446-0.085-0.594-0.255c-0.154-0.173-0.233-0.425-0.233-0.767v-2.582c0-0.408-0.013-0.726-0.04-0.953
						c-0.029-0.221-0.105-0.41-0.226-0.552c-0.123-0.147-0.318-0.22-0.582-0.22c-0.532,0-0.88,0.181-1.048,0.551
						c-0.167,0.36-0.254,0.883-0.254,1.567v2.189c0,0.336-0.076,0.592-0.226,0.765c-0.156,0.171-0.355,0.258-0.603,0.258
						c-0.247,0-0.448-0.087-0.604-0.258c-0.157-0.173-0.235-0.428-0.235-0.765v-4.637c0-0.306,0.07-0.538,0.209-0.695
						c0.143-0.16,0.329-0.239,0.556-0.239c0.223,0,0.407,0.077,0.557,0.222c0.148,0.149,0.221,0.354,0.221,0.615v0.153
						c0.283-0.334,0.584-0.582,0.903-0.738c0.323-0.162,0.676-0.241,1.071-0.241c0.407,0,0.757,0.082,1.049,0.244
						c0.294,0.163,0.533,0.409,0.725,0.735c0.275-0.33,0.568-0.577,0.881-0.738c0.313-0.161,0.658-0.241,1.039-0.241
						c0.441,0,0.826,0.089,1.146,0.262c0.319,0.174,0.558,0.425,0.717,0.747c0.138,0.295,0.206,0.756,0.206,1.385v3.164
						c0,0.342-0.076,0.595-0.229,0.767c-0.154,0.17-0.359,0.255-0.612,0.255c-0.247,0-0.446-0.087-0.603-0.258
						c-0.156-0.173-0.235-0.428-0.235-0.765v-2.726c0-0.349-0.015-0.627-0.043-0.836c-0.029-0.211-0.11-0.388-0.239-0.529
						c-0.133-0.142-0.332-0.215-0.596-0.215c-0.214,0-0.416,0.066-0.609,0.192c-0.192,0.124-0.342,0.298-0.45,0.508
						C320.231,480.501,320.169,480.985,320.169,481.679"/>
				</g>
			</g>
			<g>
				<g>
					<path style="fill:#BABABA;" d="M244.729,481.168c-0.001-0.003-0.001-0.006-0.001-0.011
						C244.728,481.162,244.728,481.165,244.729,481.168z"/>
				</g>
				<g>
					<path style="fill:#BABABA;" d="M244.811,481.686c0.001,0,0.001,0,0.002,0c-0.031-0.148-0.055-0.294-0.074-0.439
						C244.757,481.393,244.782,481.54,244.811,481.686z"/>
				</g>
				<g>
					<path style="fill:#BABABA;" d="M245.347,483.19c-0.004-0.006-0.007-0.013-0.011-0.021
						C245.341,483.177,245.344,483.184,245.347,483.19z"/>
				</g>
				<g>
					<path style="fill:#BABABA;" d="M245.296,483.09c-0.014-0.027-0.027-0.056-0.041-0.084
						C245.269,483.035,245.282,483.062,245.296,483.09z"/>
				</g>
				<g>
					<path style="fill:#BABABA;" d="M244.962,482.265c0.079,0.25,0.175,0.493,0.286,0.724c-0.113-0.236-0.206-0.479-0.284-0.724
						C244.963,482.265,244.962,482.265,244.962,482.265z"/>
				</g>
				<g>
					<path style="fill:#BABABA;" d="M251.003,474.957c0.313,0,0.544,0.025,0.809,0.07l0.075-0.477c0,0-0.732-0.225-1.694-0.147
						l-0.076-0.259c0.299-0.063,0.524-0.329,0.524-0.646c0-0.364-0.296-0.659-0.661-0.659c-0.364,0-0.66,0.295-0.66,0.659
						c0,0.317,0.224,0.583,0.522,0.646l0.084,0.289c-1.021,0.14-1.835,0.539-1.835,0.539l0.144,0.441
						c0.618-0.206,1.154-0.331,1.64-0.383C250.352,474.979,250.711,474.957,251.003,474.957z"/>
				</g>
				<g>
					<path style="fill:#BABABA;" d="M245.335,477.369l0.004-0.005c0.024-0.031,0.047-0.06,0.071-0.089l-0.195-0.141l-0.305-0.223
						c-0.017,0.024-0.497,0.465-0.876,1.28c-0.016-0.026-0.035-0.051-0.056-0.074c-0.114-0.124-0.272-0.187-0.474-0.184
						c-0.003,0-0.006,0-0.009,0c-0.125,0-0.211-0.042-0.267-0.092c0.056-0.071,0.089-0.16,0.089-0.258
						c0-0.23-0.187-0.418-0.418-0.418c-0.23,0-0.418,0.188-0.418,0.418c0,0.231,0.187,0.418,0.418,0.418
						c0.036,0,0.071-0.006,0.104-0.013c0.103,0.114,0.266,0.214,0.505,0.209c0.123-0.001,0.213,0.031,0.273,0.097
						c0.069,0.076,0.093,0.185,0.1,0.267c-0.001,0.001-0.001,0.003-0.002,0.003c-0.272,0.743-0.194,1.669-0.194,1.669l0.661,0.026
						c0.013-0.337,0.062-0.927,0.232-1.394C244.906,477.959,245.318,477.393,245.335,477.369z"/>
				</g>
				<g>
					<path style="fill:#BABABA;" d="M256.752,475.51c-0.23,0-0.418,0.187-0.418,0.418c0,0.036,0.005,0.07,0.015,0.103
						c-0.115,0.104-0.214,0.267-0.211,0.507c0.002,0.123-0.03,0.212-0.096,0.273c-0.053,0.047-0.12,0.072-0.185,0.088
						c-0.492-0.689-1.098-1.11-1.098-1.11l-0.474,0.508c0.358,0.326,0.725,0.734,1.08,1.244c0.246,0.352,0.499,0.806,0.71,1.259
						l0.64-0.304c0,0-0.292-0.722-0.704-1.37c0.071-0.025,0.143-0.064,0.207-0.12c0.125-0.113,0.187-0.273,0.183-0.474
						c-0.001-0.13,0.042-0.218,0.093-0.276c0.071,0.054,0.16,0.089,0.258,0.089c0.232,0,0.419-0.187,0.419-0.418
						C257.171,475.697,256.984,475.51,256.752,475.51z"/>
				</g>
				<g>
					<path style="fill:#BABABA;" d="M255.091,481.261c-0.881,0.429-2.33,0.996-4.238,1.262c-0.749,0.104-1.475,0.142-2.143,0.142
						c-0.869,0-1.637-0.065-2.227-0.139c-0.673-0.085-1.198-0.189-1.52-0.261c0.077,0.245,0.171,0.488,0.284,0.724
						c0.002,0.006,0.005,0.013,0.008,0.017c0.013,0.027,0.027,0.056,0.041,0.084c0.014,0.027,0.027,0.054,0.041,0.079
						c0.004,0.007,0.007,0.015,0.011,0.021c0.189,0.356,0.417,0.684,0.675,0.968c0.9,0.984,1.817,1.14,1.826,1.141l0.014,0.002
						l0.014,0.005c0.008,0.003,0.821,0.266,2.057,0.266c1.216,0,2.409-0.245,3.546-0.729c0.842-0.431,1.639-1.085,2.034-1.669
						c0.305-0.452,0.526-0.933,0.656-1.434c0.07-0.266,0.125-0.692,0.092-1.141C256.014,480.766,255.622,481.003,255.091,481.261z"
						/>
				</g>
				<g>
					<path style="fill:#BABABA;" d="M245.618,477.578c-0.026,0.037-0.408,0.578-0.709,1.408c-0.226,0.622-0.216,1.527-0.216,1.537
						v0.002c0,0.212,0.012,0.423,0.035,0.632c0,0.005,0,0.008,0.001,0.011c0.003,0.027,0.007,0.053,0.009,0.079
						c0.019,0.145,0.043,0.291,0.074,0.439c0.438,0.111,3.049,0.72,5.968,0.314c1.829-0.254,3.218-0.795,4.062-1.204
						c0.701-0.34,1.151-0.648,1.325-0.774c-0.173-0.643-0.651-1.65-1.089-2.279c-1.253-1.791-2.604-2.25-3.298-2.365
						c-0.265-0.043-0.477-0.068-0.777-0.068c-0.279,0-0.626,0.023-1.089,0.071c-0.465,0.048-0.982,0.17-1.583,0.372
						c-0.842,0.282-1.605,0.725-2.204,1.28l-0.02,0.019C246.017,477.134,245.831,477.306,245.618,477.578z M253.287,477.161
						c0.601,0,1.089,0.488,1.089,1.09c0,0.601-0.489,1.09-1.089,1.09c-0.601,0-1.089-0.489-1.089-1.09
						C252.198,477.649,252.685,477.161,253.287,477.161z M248.135,477.118c0.973,0,1.761,0.788,1.761,1.761
						c0,0.972-0.788,1.759-1.761,1.759c-0.972,0-1.76-0.787-1.76-1.759C246.376,477.906,247.164,477.118,248.135,477.118z"/>
				</g>
			</g>
		</g>
	</g>
</g>
</svg>
